<svg xmlns="http://www.w3.org/2000/svg"><symbol id="icon_arrow" viewBox="0 0 100 100"><path fill="none" stroke="currentColor" stroke-width="4.176" stroke-miterlimit="10" d="M58.3 3.8L93.6 50 58.3 96.2M93.6 50H4.2"/></symbol><symbol id="icon_caret" viewBox="0 0 100 100"><path fill="none" stroke="currentColor" stroke-width="4.176" stroke-miterlimit="10" d="M38.8 2.1L75.5 50 38.8 98"/></symbol><symbol id="icon_check" viewBox="0 0 100 100"><path fill="none" stroke="currentColor" stroke-width="4" stroke-miterlimit="10" d="M2.4 50l31.8 31.8 63.6-63.6"/></symbol><symbol id="icon_document" viewBox="0 0 100 100"><g fill="none" stroke="currentColor" stroke-width="4.176" stroke-miterlimit="10"><path d="M79.7 96.9H20.3c-6 0-10.8-4.8-10.8-10.8V13.3c0-6 4.8-10.8 10.8-10.8h32.9c1.4 0 2.7.5 3.7 1.4l31.8 29.3c1.1 1 1.7 2.5 1.7 4v48.9c0 5.9-4.8 10.8-10.7 10.8z"/><path d="M55.4 2.5v21.6c0 6 4.8 10.8 10.8 10.8h22.9"/></g></symbol><symbol id="icon_download" viewBox="0 0 100 100"><g fill="none" stroke="currentColor" stroke-width="4.829" stroke-miterlimit="10"><path d="M56.3 4.1H16.1C9.8 4.1 4.6 9.2 4.6 15.6v68.8c0 6.3 5.1 11.5 11.5 11.5h68.8c6.3 0 11.5-5.1 11.5-11.5V44.3M93.5 7L42.8 57.7"/><path d="M41.9 24.2v31.5c0 1.6 1.3 2.9 2.9 2.9h31.5"/></g></symbol><symbol id="icon_easy-fill" viewBox="0 0 100 100"><g fill="none" stroke="currentColor" stroke-width="3.993" stroke-miterlimit="10"><path d="M1.7 11.4h40.4M1.7 29.3h40.4M1.7 47.2h40.4M45.3 79.4l-25 7.2 7.2-25 48.3-48.3c3.5-3.5 9.1-3.5 12.5 0l5.4 5.4c3.5 3.5 3.5 9.1 0 12.5L45.3 79.4zM86.5 38.3L68.6 20.4"/></g></symbol><symbol id="icon_edit" viewBox="0 0 100 100"><g fill="none" stroke="currentColor" stroke-width="3.901" stroke-miterlimit="10"><path d="M6.1 97H90M39.8 73.9l-26 7.4 7.4-26 50.2-50c3.6-3.6 9.4-3.6 13 0l5.6 5.6c3.6 3.6 3.6 9.4 0 13l-50.2 50zM82.5 31.2L64 12.7"/></g></symbol><symbol id="icon_facebook" viewBox="-456 258 46 46"><title>Facebook</title><path fill="currentColor" d="M-425.6 273.8h-4.9v-3.2c0-1.2.8-1.5 1.4-1.5h3.5v-5.3h-4.8c-5.3 0-6.5 4-6.5 6.5v3.6h-3.1v5.5h3.1v15.5h6.4v-15.5h4.3l.6-5.6z"/></symbol><symbol id="icon_linkedin" viewBox="-456 258 46 46"><title>linkedin</title><path fill="currentColor" d="M-449.1 274.5h6.5v21h-6.5v-21zm3.1-2.6c-2.4 0-3.9-1.6-3.9-3.6 0-2.1 1.6-3.6 4-3.6s3.9 1.6 3.9 3.6c-.1 2-1.6 3.6-4 3.6zm29.4 23.7h-7.4v-10.9c0-2.8-1.2-4.8-3.7-4.8-1.9 0-3 1.3-3.5 2.6-.2.5-.2 1.1-.2 1.7v11.4h-7.3s.1-19.3 0-21h7.3v3.3c.4-1.4 2.8-3.5 6.5-3.5 4.6 0 8.2 3 8.2 9.5v11.7h.1z"/></symbol><symbol id="icon_lock" viewBox="0 0 23.2 23.2"><g fill="none" stroke="currentColor" stroke-miterlimit="10"><path d="M17.8 22.6H6.1c-1.3 0-2.3-1-2.3-2.3v-7.6c0-1.3 1-2.3 2.3-2.3h11.7c1.3 0 2.3 1 2.3 2.3v7.6c0 1.3-1 2.3-2.3 2.3zM17.2 10.3H6.7V6.2C6.7 3.3 9.1.9 12 .9s5.3 2.4 5.3 5.3v4.1z"/></g></symbol><symbol id="icon_mail" viewBox="0 0 100 100"><g fill="none" stroke="currentColor" stroke-width="3.993" stroke-miterlimit="10"><path d="M85.1 87.3H14.5c-6 0-10.9-4.9-10.9-10.9V22.2c0-6 4.9-10.9 10.9-10.9H85c6 0 10.9 4.9 10.9 10.9v54.3c0 5.9-4.8 10.8-10.8 10.8z"/><path d="M3.7 22.2l46.1 27.1 46.1-27.1"/></g></symbol><symbol id="icon_phone" viewBox="0 0 100 100"><g fill="none" stroke="currentColor" stroke-width="3.993" stroke-miterlimit="10"><path d="M66 95H34c-5.9 0-10.7-4.8-10.7-10.7V14.9C23.3 9 28.1 4.2 34 4.2h32c5.9 0 10.7 4.8 10.7 10.7v69.5C76.7 90.2 71.9 95 66 95z"/><circle cx="50" cy="84.3" r="2.7"/><path d="M44.7 12.2h10.6"/></g></symbol><symbol id="icon_plus" viewBox="0 0 100 100"><path fill="none" stroke="currentColor" stroke-width="4" stroke-miterlimit="10" d="M50 0v100M100 50H0"/></symbol><symbol id="icon_text" viewBox="0 0 100 100"><g fill="none" stroke="currentColor" stroke-width="4.829" stroke-miterlimit="10"><path d="M-1118.7 4.1h-40.1c-6.3 0-11.5 5.1-11.5 11.5v68.8c0 6.3 5.1 11.5 11.5 11.5h68.8c6.3 0 11.5-5.1 11.5-11.5V44.3M-1081.5 7l-50.7 50.7"/><path d="M-1133.1 24.2v31.5c0 1.6 1.3 2.9 2.9 2.9h31.5"/></g><g fill="none" stroke="currentColor" stroke-width="4.08" stroke-miterlimit="10"><path d="M-1006.1 17.3c-26.1 0-47.3 25.9-47.3 30.6s21.2 30.6 47.3 30.6c26.1 0 47.3-25.9 47.3-30.6s-21.2-30.6-47.3-30.6z"/><circle cx="-1006.1" cy="47.9" r="16.7"/></g><g fill="none" stroke="currentColor" stroke-width="3.934" stroke-miterlimit="10"><path d="M-917.5 85.2c1.7-9.8 8.1-18 16.9-22M-875.4 63.2c3.2 1.5 6.1 3.5 8.6 6 4.3 4.3 7.2 9.8 8.3 16"/><circle cx="-888" cy="49.5" r="46.3"/><ellipse cx="-888" cy="46.8" rx="19.1" ry="21.8"/></g><g fill="none" stroke="currentColor" stroke-width="3.934" stroke-miterlimit="10"><path d="M-770 8.6h-37.9c-6 0-10.8 4.8-10.8 10.8v65c0 6 4.8 10.8 10.8 10.8h65c6 0 10.8-4.8 10.8-10.8V46.5M-775.4 51.9l48-47.7M-726.7 35.7V5.9c0-1.5-1.2-2.7-2.7-2.7h-29.8"/></g><g fill="none" stroke="currentColor" stroke-width="3.901" stroke-miterlimit="10"><path d="M-698.9 97h83.9M-665.2 73.9l-26 7.4 7.4-26 50.1-50.1c3.6-3.6 9.4-3.6 13 0l5.6 5.6c3.6 3.6 3.6 9.4 0 13l-50.1 50.1zM-622.5 31.2L-641 12.7"/></g><g fill="none" stroke="currentColor" stroke-width="3.901" stroke-miterlimit="10"><path d="M-504.1 17v64.2c0 5.7-4.6 10.3-10.3 10.3h-46.2c-5.7 0-10.3-4.6-10.3-10.3V17M-583.7 17h92.4M-522.1 17h-30.8V9.3c0-2.8 2.3-5.1 5.1-5.1h20.5c2.8 0 5.1 2.3 5.1 5.1V17zM-537.5 29.8v48.8M-522.1 29.8v48.8M-552.9 29.8v48.8"/></g><g fill="none" stroke="currentColor" stroke-width="3.993" stroke-miterlimit="10"><path d="M-468.3 11.4h40.4M-468.3 29.3h40.4M-468.3 47.2h40.4M-424.7 79.4l-25 7.2 7.2-25 48.3-48.3c3.5-3.5 9.1-3.5 12.5 0l5.4 5.4c3.5 3.5 3.5 9.1 0 12.5l-48.4 48.2zM-383.5 38.3l-17.9-17.9"/></g><g fill="none" stroke="currentColor" stroke-width="3.993" stroke-miterlimit="10"><path d="M-286 95h-32c-5.9 0-10.7-4.8-10.7-10.7V14.9c0-5.9 4.8-10.7 10.7-10.7h32.1c5.9 0 10.7 4.8 10.7 10.7v69.5c-.1 5.8-4.9 10.6-10.8 10.6z"/><circle cx="-302" cy="84.3" r="2.7"/><path d="M-307.3 12.2h10.6"/></g><g fill="none" stroke="currentColor" stroke-width="3.993" stroke-miterlimit="10"><path d="M-150.9 87.3h-70.5c-6 0-10.9-4.9-10.9-10.9V22.2c0-6 4.9-10.9 10.9-10.9h70.5c6 0 10.9 4.9 10.9 10.9v54.3c-.1 5.9-4.9 10.8-10.9 10.8z"/><path d="M-232.3 22.2l46.1 27.1 46.1-27.1"/></g><path fill="none" stroke="currentColor" stroke-width="4.176" stroke-miterlimit="10" d="M-59.7 3.8L-24.4 50l-35.3 46.2M-24.4 50h-89.4"/><g fill="none" stroke="currentColor" stroke-width="4.176" stroke-miterlimit="10"><path d="M86.3 49.2V85c0 5.7-4.6 10.2-10.2 10.2H14.7C9.1 95.3 4.5 90.7 4.5 85V23.7c0-5.6 4.6-10.2 10.2-10.2h35.8"/><path d="M59.9 50.7l-14.5 3.6L49 39.9 83.3 5.6c3-3 7.9-3 10.9 0s3 7.9 0 10.9L59.9 50.7zM79.7 9.2L90.6 20"/></g></symbol><symbol id="icon_trash" viewBox="0 0 100 100"><g fill="none" stroke="currentColor" stroke-width="3.901" stroke-miterlimit="10"><path d="M82.9 17v64.2c0 5.7-4.6 10.3-10.3 10.3H26.4c-5.7 0-10.3-4.6-10.3-10.3V17M3.3 17h92.4M64.9 17H34.1V9.3c0-2.8 2.3-5.1 5.1-5.1h20.5c2.8 0 5.1 2.3 5.1 5.1V17zM49.5 29.8v48.8M64.9 29.8v48.8M34.1 29.8v48.8"/></g></symbol><symbol id="icon_twitter" viewBox="-456 258 46 46"><title>Twitter</title><path fill="currentColor" d="M-417.2 271.2c-1.2.5-2.5.9-3.8 1.1 1.4-.8 2.4-2.1 2.9-3.7-1.3.8-2.7 1.3-4.2 1.6-1.2-1.3-2.9-2.1-4.8-2.1-3.7 0-6.6 3-6.6 6.7 0 .5.1 1 .2 1.5-5.5-.3-10.4-3-13.7-7-.6 1-.9 2.1-.9 3.4 0 2.3 1.2 4.4 2.9 5.6-1.1 0-2.1-.3-3-.8v.1c0 3.2 2.3 6 5.3 6.6-.6.2-1.1.2-1.7.2-.4 0-.8 0-1.2-.1.8 2.7 3.3 4.6 6.2 4.7-2.3 1.8-5.1 2.9-8.2 2.9-.5 0-1.1 0-1.6-.1 2.9 1.9 6.4 3 10.2 3 12.2 0 18.9-10.2 18.9-19.1v-.9c1.1-1.1 2.3-2.2 3.1-3.6z"/></symbol><symbol id="icon_upload" viewBox="0 0 100 100"><g fill="none" stroke="currentColor" stroke-width="3.934" stroke-miterlimit="10"><path d="M53 8.6H15.1c-6 0-10.8 4.8-10.8 10.8v65c0 6 4.8 10.8 10.8 10.8h65c6 0 10.8-4.8 10.8-10.8V46.5M47.6 51.9l48-47.7M96.3 35.7V5.9c0-1.5-1.2-2.7-2.7-2.7H63.8"/></g></symbol><symbol id="icon_user" viewBox="0 0 100 100"><g fill="none" stroke="currentColor" stroke-width="3.934" stroke-miterlimit="10"><path d="M20.5 85.2c1.7-9.8 8.1-18 16.9-22M62.6 63.2c3.2 1.5 6.1 3.5 8.6 6 4.3 4.3 7.2 9.8 8.3 16"/><circle cx="50" cy="49.5" r="46.3"/><ellipse cx="50" cy="46.8" rx="19.1" ry="21.8"/></g></symbol><symbol id="icon_view" viewBox="0 0 100 100"><g fill="none" stroke="currentColor" stroke-width="4.08" stroke-miterlimit="10"><path d="M49.9 17.3c-26.1 0-47.3 25.9-47.3 30.6s21.2 30.6 47.3 30.6c26.1 0 47.3-25.9 47.3-30.6S76 17.3 49.9 17.3z"/><circle cx="49.9" cy="47.9" r="16.7"/></g></symbol><symbol id="icon_x" viewBox="0 0 100 100"><path fill="none" stroke="currentColor" stroke-width="4" stroke-miterlimit="10" d="M2.2 98.2L98.5 1.8M2.2 1.8l96.3 96.4"/></symbol></svg>