<?xml version="1.0" encoding="utf-8"?>
<!-- Generator: Adobe Illustrator 19.1.0, SVG Export Plug-In . SVG Version: 6.00 Build 0)  -->
<svg version="1.1" id="Layer_1" xmlns="http://www.w3.org/2000/svg" xmlns:xlink="http://www.w3.org/1999/xlink" x="0px" y="0px"
	 viewBox="0 0 198 198" enable-background="new 0 0 198 198" xml:space="preserve">
<g>
	<rect fill="#809392" width="198" height="198"/>
	<path fill="#FFFFFF" d="M33.7,39.4V40h-1.2c0,4.4-0.2,9.6-2,11.4C30.1,51.8,29.6,52,29,52c-1,0-1.9-0.8-2.6-2.6
		c-1-2.4-1.7-7-1.7-11.4c0-4.9,0.8-9.6,2.1-11.9c0.6-1.2,1.3-1.7,2.2-1.7c0.7,0,1.1,0.4,1.6,1.6c0.1,0.3,0.2,0.3,0.3,0.3
		c0.2,0,0.3-0.2,0.4-1.5v-0.1H32v8.1h-0.6l0-0.1c-0.3-2.6-0.8-4.9-1.4-6.6c-0.3-0.7-0.6-1.2-0.9-1.2c-0.5,0-0.8,0.5-1,1.8
		c-0.1,0.5-0.1,1.4-0.2,2.8c-0.1,0.8-0.1,1.5-0.1,2.3l0,1.1v4.3c0,6.2,0.1,10,0.2,11.9c0.1,1.3,0.5,2,1.1,2c0.7,0,1.1-1.2,1.1-3.5
		V40h-1.4v-0.6H33.7z M61.1,24.8v0.6h1.4V51h-1.4v0.6h8.6v-9h-0.7l0,0.1c-0.1,3-0.5,4.9-1.2,6.4c-0.6,1.2-1.3,1.7-2.7,1.9V37.4
		c1.2,0.1,1.6,0.9,1.9,5.2l0,0.6l0,0.1h0.6V31.4h-0.6l0,0.1c-0.2,4.3-0.9,5.2-1.9,5.2V25.4c1.6,0.1,2.1,0.4,2.7,1.5
		c0.5,1,1,2.3,1.3,5.4v0.1h0.6v-7.6H61.1z M164.6,24.8v0.6h1.4V51h-1.4v0.6h8.6v-9h-0.7v0.1c-0.1,3-0.5,4.9-1.2,6.4
		c-0.5,1.2-1.3,1.7-2.7,1.9V37.4c1.2,0.1,1.7,0.9,1.9,5.2l0,0.6v0.1h0.6V31.4h-0.6v0.1c-0.3,4.3-0.9,5.2-2,5.2V25.4
		c1.6,0.1,2.1,0.4,2.7,1.5c0.5,1,1,2.3,1.3,5.4l0,0.1h0.6v-7.6H164.6z M84.4,24.8v0.6l0.1,0c1.1,0.3,1.5,0.7,1.5,1.7
		c0,0.4-0.1,1.2-0.3,2.1c0,0-1.1,5.4-1.5,7.2l-2.3-11h1.2v-0.6h-4.9v0.6h1.1L82,38V51h-1.4v0.6h5.4V51h-1.4V38l1.8-8.8
		c0.5-2.5,1.1-3.4,2.3-3.8l0.1,0v-0.6H84.4z M100.7,36.7c-2.6-5-3.3-6.7-3.3-8.7c0-1,0.3-1.8,0.7-2.2c0.3-0.3,0.6-0.4,1-0.4
		c1.5,0,2.6,2.6,3.3,7.4l0,0.1h0.6v-8.1h-0.6v0.1v0.2c-0.1,1.4-0.2,1.6-0.4,1.6c-0.1,0-0.2,0-0.3-0.3c0,0-0.3-0.4-0.3-0.4
		c-0.7-1-1.4-1.4-2.3-1.4c-1.9,0-3.3,2.2-3.3,5.4c0,2.3,0.7,4.5,2.5,8.2c1.4,2.7,1.8,3.7,2.3,5.1c0.8,2,1.1,3.5,1.1,4.8
		c0,1.9-0.6,2.9-1.7,2.9c-1,0-1.8-0.9-2.5-3.2C97,46,96.6,44,96.4,42.2l0-0.1h-0.6v9.6h0.6l0-0.1c0.1-1.7,0.2-2,0.6-2
		c0.2,0,0.2,0,0.7,0.7c0.8,1.2,1.5,1.6,2.5,1.6c0.6,0,1.2-0.3,1.8-0.8c1-1,1.7-3,1.7-5.2c0-1.1-0.2-2.4-0.6-3.8
		C102.5,40.4,102,39.1,100.7,36.7 M112,24.8v8.1h0.7v-0.1c0.1-1.9,0.4-3.8,0.8-5.1c0.4-1.2,0.9-1.9,1.5-2.2V51h-1.4v0.6h5.4V51h-1.4
		V25.5c1.3,0.5,2.1,2.9,2.4,7c0,0,0,0.3,0,0.3l0,0.1h0.6v-8.1H112z M137.5,28.7c0.5,1.8,0.8,4.7,0.8,6.7c0,3.2-0.5,6.5-1.4,8.5
		c-0.7,1.6-1.7,2.4-3,2.4c-1,0-1.8-0.4-2.4-1.2c-0.6-0.8-1-1.6-1.3-3c-0.5-2-0.8-4.6-0.8-6.7c0-3.2,0.5-6.3,1.4-8.5
		c0.6-1.5,1.7-2.4,3.1-2.4c0.9,0,1.8,0.4,2.3,1.2C136.7,26.5,137.1,27.3,137.5,28.7 M132.4,35.4c0,1.3,0,3.1,0,5.3
		c0,2.8,0.1,3.8,0.4,4.3c0.2,0.3,0.5,0.5,1,0.5c0.5,0,0.9-0.4,1.1-0.9c0.2-0.6,0.2-1.2,0.2-2.8c0-0.4,0-1,0-1.7l0-1.6
		c0-1.6,0-2.3,0-3.2c0-0.8,0-1.5,0-3.2c0-2.9-0.1-3.8-0.1-5c-0.1-1.7-0.8-1.9-1.2-1.9c-0.5,0-1,0.3-1.1,0.9
		c-0.2,0.6-0.2,1.2-0.2,2.8C132.5,30.4,132.4,33.6,132.4,35.4 M152.4,24.8v0.6l0.1,0c1.4,0.3,1.6,0.8,1.6,3.5v1.4v11l-4-16.4h-3.5
		v0.6h1.4v20.8c0,4.2-0.3,4.6-1.8,4.9l-0.1,0v0.6h4.3V51l-0.1,0c-1.2-0.2-1.6-0.7-1.6-2.6c0-0.6-0.1-1.9-0.1-2.3V29.9l5.6,22h0.6
		V30.2c0-4.1,0.4-4.7,1.8-4.9l0.1,0v-0.6H152.4z M133.9,49.6c-1.5,0-3.6,0.3-3.6,1.2c0,0.1,0,0.2,0.1,0.4c0.4,0.5,1.8,0.9,3.5,0.9
		c1.7,0,3.1-0.4,3.5-0.9c0.1-0.1,0.1-0.2,0.1-0.4c0-0.1,0-0.2-0.1-0.4C137,49.9,135.6,49.6,133.9,49.6 M52,51h0.7v0.6H50
		c-0.8,0-1.3-0.4-1.3-1.3v-9.4c0-2.5-0.7-3.3-2.5-3.4V51h1.3v0.6h-5.3V51h1.4V25.4h-1.4v-0.6h3.7c1.9,0,3.1,0.4,4,1.5
		c1.1,1.3,1.6,2.9,1.6,5.1c0,3.2-1.4,5.2-3.7,5.9c1.6,0.4,2.5,1.1,3,2.3c0.4,0.9,0.5,1.8,0.5,3.7v7C51.3,50.8,51.5,51,52,51
		 M46.2,25.4v11.5c1.8-0.1,2.5-0.9,2.5-5.6C48.7,26.3,47.9,25.5,46.2,25.4"/>
</g>
</svg>
