<svg id="Layer_1" xmlns="http://www.w3.org/2000/svg" viewBox="0 0 100 100"><g fill="none" stroke="#808184" stroke-width="4.829" stroke-miterlimit="10"><path d="M-1118.7 4.1h-40.1c-6.3 0-11.5 5.1-11.5 11.5v68.8c0 6.3 5.1 11.5 11.5 11.5h68.8c6.3 0 11.5-5.1 11.5-11.5V44.3M-1081.5 7l-50.7 50.7"/><path d="M-1133.1 24.2v31.5c0 1.6 1.3 2.9 2.9 2.9h31.5"/></g><g fill="none" stroke="#808184" stroke-width="4.08" stroke-miterlimit="10"><path d="M-1006.1 17.3c-26.1 0-47.3 25.9-47.3 30.6s21.2 30.6 47.3 30.6c26.1 0 47.3-25.9 47.3-30.6s-21.2-30.6-47.3-30.6z"/><circle cx="-1006.1" cy="47.9" r="16.7"/></g><g fill="none" stroke="#808184" stroke-width="3.934" stroke-miterlimit="10"><path d="M-917.5 85.2c1.7-9.8 8.1-18 16.9-22M-875.4 63.2c3.2 1.5 6.1 3.5 8.6 6 4.3 4.3 7.2 9.8 8.3 16"/><circle cx="-888" cy="49.5" r="46.3"/><ellipse cx="-888" cy="46.8" rx="19.1" ry="21.8"/></g><g fill="none" stroke="#808184" stroke-width="3.934" stroke-miterlimit="10"><path d="M-770 8.6h-37.9c-6 0-10.8 4.8-10.8 10.8v65c0 6 4.8 10.8 10.8 10.8h65c6 0 10.8-4.8 10.8-10.8V46.5M-775.4 51.9l48-47.7M-726.7 35.7V5.9c0-1.5-1.2-2.7-2.7-2.7h-29.8"/></g><g fill="none" stroke="#808184" stroke-width="3.901" stroke-miterlimit="10"><path d="M-698.9 97h83.9M-665.2 73.9l-26 7.4 7.4-26 50.1-50.1c3.6-3.6 9.4-3.6 13 0l5.6 5.6c3.6 3.6 3.6 9.4 0 13l-50.1 50.1zM-622.5 31.2L-641 12.7"/></g><g fill="none" stroke="#808184" stroke-width="3.901" stroke-miterlimit="10"><path d="M-504.1 17v64.2c0 5.7-4.6 10.3-10.3 10.3h-46.2c-5.7 0-10.3-4.6-10.3-10.3V17M-583.7 17h92.4M-522.1 17h-30.8V9.3c0-2.8 2.3-5.1 5.1-5.1h20.5c2.8 0 5.1 2.3 5.1 5.1V17zM-537.5 29.8v48.8M-522.1 29.8v48.8M-552.9 29.8v48.8"/></g><g fill="none" stroke="#808184" stroke-width="3.993" stroke-miterlimit="10"><path d="M-468.3 11.4h40.4M-468.3 29.3h40.4M-468.3 47.2h40.4M-424.7 79.4l-25 7.2 7.2-25 48.3-48.3c3.5-3.5 9.1-3.5 12.5 0l5.4 5.4c3.5 3.5 3.5 9.1 0 12.5l-48.4 48.2zM-383.5 38.3l-17.9-17.9"/></g><g fill="none" stroke="#808184" stroke-width="3.993" stroke-miterlimit="10"><path d="M-286 95h-32c-5.9 0-10.7-4.8-10.7-10.7V14.9c0-5.9 4.8-10.7 10.7-10.7h32.1c5.9 0 10.7 4.8 10.7 10.7v69.5c-.1 5.8-4.9 10.6-10.8 10.6z"/><circle cx="-302" cy="84.3" r="2.7"/><path d="M-307.3 12.2h10.6"/></g><g fill="none" stroke="#808184" stroke-width="3.993" stroke-miterlimit="10"><path d="M-150.9 87.3h-70.5c-6 0-10.9-4.9-10.9-10.9V22.2c0-6 4.9-10.9 10.9-10.9h70.5c6 0 10.9 4.9 10.9 10.9v54.3c-.1 5.9-4.9 10.8-10.9 10.8z"/><path d="M-232.3 22.2l46.1 27.1 46.1-27.1"/></g><path fill="none" stroke="#808184" stroke-width="4.176" stroke-miterlimit="10" d="M-59.7 3.8L-24.4 50l-35.3 46.2M-24.4 50h-89.4"/><g fill="none" stroke="#808184" stroke-width="4.176" stroke-miterlimit="10"><path d="M86.3 49.2V85c0 5.7-4.6 10.2-10.2 10.2H14.7C9.1 95.3 4.5 90.7 4.5 85V23.7c0-5.6 4.6-10.2 10.2-10.2h35.8"/><path d="M59.9 50.7l-14.5 3.6L49 39.9 83.3 5.6c3-3 7.9-3 10.9 0s3 7.9 0 10.9L59.9 50.7zM79.7 9.2L90.6 20"/></g></svg>