<svg id="Layer_1" xmlns="http://www.w3.org/2000/svg" viewBox="-456 258 46 46"><title>Twitter</title><g id="Page-1"><g id="Twitter"><g id="_x30_3-twitter"><path id="Shape" fill="#FFF" d="M-417.2 271.2c-1.2.5-2.5.9-3.8 1.1 1.4-.8 2.4-2.1 2.9-3.7-1.3.8-2.7 1.3-4.2 1.6-1.2-1.3-2.9-2.1-4.8-2.1-3.7 0-6.6 3-6.6 6.7 0 .5.1 1 .2 1.5-5.5-.3-10.4-3-13.7-7-.6 1-.9 2.1-.9 3.4 0 2.3 1.2 4.4 2.9 5.6-1.1 0-2.1-.3-3-.8v.1c0 3.2 2.3 6 5.3 6.6-.6.2-1.1.2-1.7.2-.4 0-.8 0-1.2-.1.8 2.7 3.3 4.6 6.2 4.7-2.3 1.8-5.1 2.9-8.2 2.9-.5 0-1.1 0-1.6-.1 2.9 1.9 6.4 3 10.2 3 12.2 0 18.9-10.2 18.9-19.1v-.9c1.1-1.1 2.3-2.2 3.1-3.6z"/></g></g></g></svg>