<?xml version="1.0" encoding="utf-8"?>
<!-- Generator: Adobe Illustrator 18.1.1, SVG Export Plug-In . SVG Version: 6.00 Build 0)  -->
<svg version="1.1" id="Layer_1" xmlns="http://www.w3.org/2000/svg" xmlns:xlink="http://www.w3.org/1999/xlink" x="0px" y="0px"
	 viewBox="0 0 100 100" enable-background="new 0 0 100 100" xml:space="preserve">
<g>
	<path fill="none" stroke="#808184" stroke-width="4.8289" stroke-miterlimit="10" d="M-1118.7,4.1h-40.1c-6.3,0-11.5,5.1-11.5,11.5
		v68.8c0,6.3,5.1,11.5,11.5,11.5h68.8c6.3,0,11.5-5.1,11.5-11.5V44.3"/>
	<line fill="none" stroke="#808184" stroke-width="4.8289" stroke-miterlimit="10" x1="-1081.5" y1="7" x2="-1132.2" y2="57.7"/>
	<path fill="none" stroke="#808184" stroke-width="4.8289" stroke-miterlimit="10" d="M-1133.1,24.2v31.5c0,1.6,1.3,2.9,2.9,2.9
		h31.5"/>
</g>
<g>
	<path fill="none" stroke="#808184" stroke-width="4.0804" stroke-miterlimit="10" d="M-1006.1,17.3c-26.1,0-47.3,25.9-47.3,30.6
		s21.2,30.6,47.3,30.6c26.1,0,47.3-25.9,47.3-30.6S-980,17.3-1006.1,17.3z"/>
	<circle fill="none" stroke="#808184" stroke-width="4.0804" stroke-miterlimit="10" cx="-1006.1" cy="47.9" r="16.7"/>
</g>
<g>
	<path fill="none" stroke="#808184" stroke-width="3.9337" stroke-miterlimit="10" d="M-917.5,85.2c1.7-9.8,8.1-18,16.9-22"/>
	<path fill="none" stroke="#808184" stroke-width="3.9337" stroke-miterlimit="10" d="M-875.4,63.2c3.2,1.5,6.1,3.5,8.6,6
		c4.3,4.3,7.2,9.8,8.3,16"/>
	<circle fill="none" stroke="#808184" stroke-width="3.9337" stroke-miterlimit="10" cx="-888" cy="49.5" r="46.3"/>
	<ellipse fill="none" stroke="#808184" stroke-width="3.9337" stroke-miterlimit="10" cx="-888" cy="46.8" rx="19.1" ry="21.8"/>
</g>
<g>
	<path fill="none" stroke="#808184" stroke-width="3.9337" stroke-miterlimit="10" d="M-770,8.6h-37.9c-6,0-10.8,4.8-10.8,10.8v65
		c0,6,4.8,10.8,10.8,10.8h65c6,0,10.8-4.8,10.8-10.8V46.5"/>
	<line fill="none" stroke="#808184" stroke-width="3.9337" stroke-miterlimit="10" x1="-775.4" y1="51.9" x2="-727.4" y2="4.2"/>
	<path fill="none" stroke="#808184" stroke-width="3.9337" stroke-miterlimit="10" d="M-726.7,35.7V5.9c0-1.5-1.2-2.7-2.7-2.7h-29.8
		"/>
</g>
<g>
	<line fill="none" stroke="#808184" stroke-width="3.9012" stroke-miterlimit="10" x1="-698.9" y1="97" x2="-615" y2="97"/>
	<g>
		<path fill="none" stroke="#808184" stroke-width="3.9012" stroke-miterlimit="10" d="M-665.2,73.9l-26,7.4l7.4-26l50.1-50.1
			c3.6-3.6,9.4-3.6,13,0l5.6,5.6c3.6,3.6,3.6,9.4,0,13L-665.2,73.9z"/>
		<line fill="none" stroke="#808184" stroke-width="3.9012" stroke-miterlimit="10" x1="-622.5" y1="31.2" x2="-641" y2="12.7"/>
	</g>
</g>
<g>
	<path fill="none" stroke="#808184" stroke-width="3.9012" stroke-miterlimit="10" d="M-504.1,17v64.2c0,5.7-4.6,10.3-10.3,10.3
		h-46.2c-5.7,0-10.3-4.6-10.3-10.3V17"/>
	<line fill="none" stroke="#808184" stroke-width="3.9012" stroke-miterlimit="10" x1="-583.7" y1="17" x2="-491.3" y2="17"/>
	<path fill="none" stroke="#808184" stroke-width="3.9012" stroke-miterlimit="10" d="M-522.1,17h-30.8V9.3c0-2.8,2.3-5.1,5.1-5.1
		h20.5c2.8,0,5.1,2.3,5.1,5.1V17z"/>
	<line fill="none" stroke="#808184" stroke-width="3.9012" stroke-miterlimit="10" x1="-537.5" y1="29.8" x2="-537.5" y2="78.6"/>
	<line fill="none" stroke="#808184" stroke-width="3.9012" stroke-miterlimit="10" x1="-522.1" y1="29.8" x2="-522.1" y2="78.6"/>
	<line fill="none" stroke="#808184" stroke-width="3.9012" stroke-miterlimit="10" x1="-552.9" y1="29.8" x2="-552.9" y2="78.6"/>
</g>
<g>
	<line fill="none" stroke="#808184" stroke-width="3.9932" stroke-miterlimit="10" x1="-468.3" y1="11.4" x2="-427.9" y2="11.4"/>
	<line fill="none" stroke="#808184" stroke-width="3.9932" stroke-miterlimit="10" x1="-468.3" y1="29.3" x2="-427.9" y2="29.3"/>
	<line fill="none" stroke="#808184" stroke-width="3.9932" stroke-miterlimit="10" x1="-468.3" y1="47.2" x2="-427.9" y2="47.2"/>
	<g>
		<path fill="none" stroke="#808184" stroke-width="3.9932" stroke-miterlimit="10" d="M-424.7,79.4l-25,7.2l7.2-25l48.3-48.3
			c3.5-3.5,9.1-3.5,12.5,0l5.4,5.4c3.5,3.5,3.5,9.1,0,12.5L-424.7,79.4z"/>
		<line fill="none" stroke="#808184" stroke-width="3.9932" stroke-miterlimit="10" x1="-383.5" y1="38.3" x2="-401.4" y2="20.4"/>
	</g>
</g>
<g>
	<path fill="none" stroke="#808184" stroke-width="3.9932" stroke-miterlimit="10" d="M-286,95H-318c-5.9,0-10.7-4.8-10.7-10.7V14.9
		c0-5.9,4.8-10.7,10.7-10.7h32.1c5.9,0,10.7,4.8,10.7,10.7v69.5C-275.3,90.2-280.1,95-286,95z"/>
	<circle fill="none" stroke="#808184" stroke-width="3.9932" stroke-miterlimit="10" cx="-302" cy="84.3" r="2.7"/>
	<line fill="none" stroke="#808184" stroke-width="3.9932" stroke-miterlimit="10" x1="-307.3" y1="12.2" x2="-296.7" y2="12.2"/>
</g>
<g>
	<path fill="none" stroke="#808184" stroke-width="3.9932" stroke-miterlimit="10" d="M-150.9,87.3h-70.5c-6,0-10.9-4.9-10.9-10.9
		V22.2c0-6,4.9-10.9,10.9-10.9h70.5c6,0,10.9,4.9,10.9,10.9v54.3C-140.1,82.4-144.9,87.3-150.9,87.3z"/>
	<polyline fill="none" stroke="#808184" stroke-width="3.9932" stroke-miterlimit="10" points="-232.3,22.2 -186.2,49.3 
		-140.1,22.2 	"/>
</g>
<polyline fill="none" stroke="#808184" stroke-width="4.1764" stroke-miterlimit="10" points="-59.7,3.8 -24.4,50 -59.7,96.2 "/>
<line fill="none" stroke="#808184" stroke-width="4.1764" stroke-miterlimit="10" x1="-24.4" y1="50" x2="-113.8" y2="50"/>
<g>
	<path fill="none" stroke="#808184" stroke-width="4.1764" stroke-miterlimit="10" d="M86.3,49.2V85c0,5.7-4.6,10.2-10.2,10.2H14.7
		C9.1,95.3,4.5,90.7,4.5,85V23.7c0-5.6,4.6-10.2,10.2-10.2h35.8"/>
	<path fill="none" stroke="#808184" stroke-width="4.1764" stroke-miterlimit="10" d="M59.9,50.7l-14.5,3.6L49,39.9L83.3,5.6
		c3-3,7.9-3,10.9,0c3,3,3,7.9,0,10.9L59.9,50.7z"/>
	<line fill="none" stroke="#808184" stroke-width="4.1764" stroke-miterlimit="10" x1="79.7" y1="9.2" x2="90.6" y2="20"/>
</g>
</svg>
