<?xml version="1.0" encoding="utf-8"?>
<!-- Generator: Adobe Illustrator 19.0.1, SVG Export Plug-In . SVG Version: 6.00 Build 0)  -->
<svg version="1.1" id="Layer_1" xmlns="http://www.w3.org/2000/svg" xmlns:xlink="http://www.w3.org/1999/xlink" x="0px" y="0px"
	 width="898.7px" height="6.5px" viewBox="0 0 898.7 6.5" enable-background="new 0 0 898.7 6.5" xml:space="preserve">
<rect x="-0.1" y="-5.8" fill="none" stroke="#D4D4D3" stroke-miterlimit="10" width="899.4" height="11.7"/>
<rect x="-0.1" y="-5.8" fill="#809592" width="294.9" height="11.7"/>
<rect x="294.8" y="-5.8" fill="#E8AA22" width="337.3" height="11.7"/>
<rect x="388.6" y="-5.8" fill="#E8AA22" width="152.5" height="11.7"/>
<line fill="none" stroke="#FFFFFF" stroke-miterlimit="10" x1="147.3" y1="-5.8" x2="147.3" y2="5.8"/>
<line fill="none" stroke="#FFFFFF" stroke-miterlimit="10" x1="238" y1="-5.8" x2="238" y2="5.8"/>
<line fill="none" stroke="#FFFFFF" stroke-miterlimit="10" x1="294.8" y1="-5.8" x2="294.8" y2="5.8"/>
<line fill="none" stroke="#FFFFFF" stroke-miterlimit="10" x1="325.6" y1="-5.8" x2="325.6" y2="5.8"/>
<line fill="none" stroke="#FFFFFF" stroke-miterlimit="10" x1="356.5" y1="-5.8" x2="356.5" y2="5.8"/>
<line fill="none" stroke="#FFFFFF" stroke-miterlimit="10" x1="387.4" y1="-5.8" x2="387.4" y2="5.8"/>
<line fill="none" stroke="#FFFFFF" stroke-miterlimit="10" x1="542.3" y1="-5.8" x2="542.3" y2="5.8"/>
<line fill="none" stroke="#FFFFFF" stroke-miterlimit="10" x1="573.2" y1="-5.8" x2="573.2" y2="5.8"/>
<line fill="none" stroke="#D4D4D3" stroke-miterlimit="10" x1="660.9" y1="-5.8" x2="660.9" y2="5.8"/>
<line fill="none" stroke="#D4D4D3" stroke-miterlimit="10" x1="691.7" y1="-5.8" x2="691.7" y2="5.8"/>
<line fill="none" stroke="#D4D4D3" stroke-miterlimit="10" x1="742.6" y1="-5.8" x2="742.6" y2="5.8"/>
<line fill="none" stroke="#D4D4D3" stroke-miterlimit="10" x1="769.8" y1="-5.8" x2="769.8" y2="5.8"/>
<line fill="none" stroke="#D4D4D3" stroke-miterlimit="10" x1="820.8" y1="-5.8" x2="820.8" y2="5.8"/>
<line fill="none" stroke="#D4D4D3" stroke-miterlimit="10" x1="844.5" y1="-5.8" x2="844.5" y2="5.8"/>
<line fill="none" stroke="#D4D4D3" stroke-miterlimit="10" x1="880" y1="-5.8" x2="880" y2="5.8"/>
</svg>
