<?xml version="1.0" encoding="utf-8"?>
<!-- Generator: Adobe Illustrator 19.0.1, SVG Export Plug-In . SVG Version: 6.00 Build 0)  -->
<svg version="1.1" id="Layer_1" xmlns="http://www.w3.org/2000/svg" xmlns:xlink="http://www.w3.org/1999/xlink" x="0px" y="0px"
	 width="898.7px" height="9.6px" viewBox="0 0 898.7 9.6" enable-background="new 0 0 898.7 9.6" xml:space="preserve">
<rect x="-0.5" y="-2.3" fill="none" stroke="#D4D4D4" stroke-miterlimit="10" width="899.4" height="11.7"/>
<rect x="-0.5" y="-2.3" fill="#829693" width="294.9" height="11.7"/>
<rect x="294.4" y="-2.3" fill="#E9AA22" width="337.3" height="11.7"/>
<rect x="312.4" y="-2.3" fill="#E9AA22" width="337.3" height="11.7"/>
<line fill="none" stroke="#FFFFFF" stroke-miterlimit="10" x1="146.9" y1="-2.3" x2="146.9" y2="9.4"/>
<line fill="none" stroke="#FFFFFF" stroke-miterlimit="10" x1="237.6" y1="-2.3" x2="237.6" y2="9.4"/>
<line fill="none" stroke="#FFFFFF" stroke-miterlimit="10" x1="294.4" y1="-2.3" x2="294.4" y2="9.4"/>
<line fill="none" stroke="#FFFFFF" stroke-miterlimit="10" x1="325.3" y1="-2.3" x2="325.3" y2="9.4"/>
<line fill="none" stroke="#FFFFFF" stroke-miterlimit="10" x1="356.1" y1="-2.3" x2="356.1" y2="9.4"/>
<line fill="none" stroke="#FFFFFF" stroke-miterlimit="10" x1="387" y1="-2.3" x2="387" y2="9.4"/>
<line fill="none" stroke="#FFFFFF" stroke-miterlimit="10" x1="542" y1="-2.3" x2="542" y2="9.4"/>
<line fill="none" stroke="#FFFFFF" stroke-miterlimit="10" x1="572.9" y1="-2.3" x2="572.9" y2="9.4"/>
<line fill="none" stroke="#D4D4D4" stroke-miterlimit="10" x1="660.5" y1="-2.3" x2="660.5" y2="9.4"/>
<line fill="none" stroke="#D4D4D4" stroke-miterlimit="10" x1="691.4" y1="-2.3" x2="691.4" y2="9.4"/>
<line fill="none" stroke="#D4D4D4" stroke-miterlimit="10" x1="742.3" y1="-2.3" x2="742.3" y2="9.4"/>
<line fill="none" stroke="#D4D4D4" stroke-miterlimit="10" x1="769.4" y1="-2.3" x2="769.4" y2="9.4"/>
<line fill="none" stroke="#D4D4D4" stroke-miterlimit="10" x1="820.4" y1="-2.3" x2="820.4" y2="9.4"/>
<line fill="none" stroke="#D4D4D4" stroke-miterlimit="10" x1="844.1" y1="-2.3" x2="844.1" y2="9.4"/>
<line fill="none" stroke="#D4D4D4" stroke-miterlimit="10" x1="879.7" y1="-2.3" x2="879.7" y2="9.4"/>
<g>
	<g>
		<defs>
			<rect id="SVGID_4_" x="387.1" y="-3.8" width="155" height="14.7"/>
		</defs>
		<clipPath id="SVGID_1_">
			<use xlink:href="#SVGID_4_"  overflow="visible"/>
		</clipPath>
		<g clip-path="url(#SVGID_1_)">
			<line fill="none" stroke="#FFFFFF" stroke-miterlimit="10" x1="353.7" y1="-34.1" x2="329.8" y2="9.6"/>
			<line fill="none" stroke="#FFFFFF" stroke-miterlimit="10" x1="357" y1="-33.6" x2="333.2" y2="10.1"/>
			<line fill="none" stroke="#FFFFFF" stroke-miterlimit="10" x1="360.3" y1="-33.1" x2="336.5" y2="10.6"/>
			<line fill="none" stroke="#FFFFFF" stroke-miterlimit="10" x1="363.7" y1="-32.6" x2="339.8" y2="11.1"/>
			<line fill="none" stroke="#FFFFFF" stroke-miterlimit="10" x1="367" y1="-32.1" x2="343.2" y2="11.6"/>
			<line fill="none" stroke="#FFFFFF" stroke-miterlimit="10" x1="370.3" y1="-31.5" x2="346.5" y2="12.1"/>
			<line fill="none" stroke="#FFFFFF" stroke-miterlimit="10" x1="373.7" y1="-31" x2="349.8" y2="12.6"/>
			<line fill="none" stroke="#FFFFFF" stroke-miterlimit="10" x1="377" y1="-30.5" x2="353.1" y2="13.1"/>
			<line fill="none" stroke="#FFFFFF" stroke-miterlimit="10" x1="380.3" y1="-30" x2="356.5" y2="13.6"/>
			<line fill="none" stroke="#FFFFFF" stroke-miterlimit="10" x1="383.6" y1="-29.5" x2="359.8" y2="14.1"/>
			<line fill="none" stroke="#FFFFFF" stroke-miterlimit="10" x1="387" y1="-29" x2="363.1" y2="14.6"/>
			<line fill="none" stroke="#FFFFFF" stroke-miterlimit="10" x1="390.3" y1="-28.5" x2="366.5" y2="15.1"/>
			<line fill="none" stroke="#FFFFFF" stroke-miterlimit="10" x1="393.6" y1="-28" x2="369.8" y2="15.6"/>
			<line fill="none" stroke="#FFFFFF" stroke-miterlimit="10" x1="397" y1="-27.5" x2="373.1" y2="16.1"/>
			<line fill="none" stroke="#FFFFFF" stroke-miterlimit="10" x1="400.3" y1="-27" x2="376.4" y2="16.6"/>
			<line fill="none" stroke="#FFFFFF" stroke-miterlimit="10" x1="403.6" y1="-26.5" x2="379.8" y2="17.1"/>
			<line fill="none" stroke="#FFFFFF" stroke-miterlimit="10" x1="406.9" y1="-26" x2="383.1" y2="17.6"/>
			<line fill="none" stroke="#FFFFFF" stroke-miterlimit="10" x1="410.3" y1="-25.5" x2="386.4" y2="18.1"/>
			<line fill="none" stroke="#FFFFFF" stroke-miterlimit="10" x1="413.6" y1="-25" x2="389.8" y2="18.6"/>
			<line fill="none" stroke="#FFFFFF" stroke-miterlimit="10" x1="416.9" y1="-24.5" x2="393.1" y2="19.1"/>
			<line fill="none" stroke="#FFFFFF" stroke-miterlimit="10" x1="420.3" y1="-24" x2="396.4" y2="19.7"/>
			<line fill="none" stroke="#FFFFFF" stroke-miterlimit="10" x1="423.6" y1="-23.5" x2="399.8" y2="20.2"/>
			<line fill="none" stroke="#FFFFFF" stroke-miterlimit="10" x1="426.9" y1="-23" x2="403.1" y2="20.7"/>
			<line fill="none" stroke="#FFFFFF" stroke-miterlimit="10" x1="430.3" y1="-22.5" x2="406.4" y2="21.2"/>
			<line fill="none" stroke="#FFFFFF" stroke-miterlimit="10" x1="433.6" y1="-22" x2="409.7" y2="21.7"/>
			<line fill="none" stroke="#FFFFFF" stroke-miterlimit="10" x1="436.9" y1="-21.5" x2="413.1" y2="22.2"/>
			<line fill="none" stroke="#FFFFFF" stroke-miterlimit="10" x1="440.2" y1="-21" x2="416.4" y2="22.7"/>
			<line fill="none" stroke="#FFFFFF" stroke-miterlimit="10" x1="443.6" y1="-20.5" x2="419.7" y2="23.2"/>
			<line fill="none" stroke="#FFFFFF" stroke-miterlimit="10" x1="446.9" y1="-19.9" x2="423.1" y2="23.7"/>
			<line fill="none" stroke="#FFFFFF" stroke-miterlimit="10" x1="450.2" y1="-19.4" x2="426.4" y2="24.2"/>
			<line fill="none" stroke="#FFFFFF" stroke-miterlimit="10" x1="453.6" y1="-18.9" x2="429.7" y2="24.7"/>
			<line fill="none" stroke="#FFFFFF" stroke-miterlimit="10" x1="456.9" y1="-18.4" x2="433" y2="25.2"/>
			<line fill="none" stroke="#FFFFFF" stroke-miterlimit="10" x1="460.2" y1="-17.9" x2="436.4" y2="25.7"/>
			<line fill="none" stroke="#FFFFFF" stroke-miterlimit="10" x1="463.5" y1="-17.4" x2="439.7" y2="26.2"/>
			<line fill="none" stroke="#FFFFFF" stroke-miterlimit="10" x1="466.9" y1="-16.9" x2="443" y2="26.7"/>
			<line fill="none" stroke="#FFFFFF" stroke-miterlimit="10" x1="470.2" y1="-16.4" x2="446.4" y2="27.2"/>
			<line fill="none" stroke="#FFFFFF" stroke-miterlimit="10" x1="473.5" y1="-15.9" x2="449.7" y2="27.7"/>
			<line fill="none" stroke="#FFFFFF" stroke-miterlimit="10" x1="476.9" y1="-15.4" x2="453" y2="28.2"/>
			<line fill="none" stroke="#FFFFFF" stroke-miterlimit="10" x1="480.2" y1="-14.9" x2="456.4" y2="28.7"/>
			<line fill="none" stroke="#FFFFFF" stroke-miterlimit="10" x1="483.5" y1="-14.4" x2="459.7" y2="29.2"/>
			<line fill="none" stroke="#FFFFFF" stroke-miterlimit="10" x1="486.9" y1="-13.9" x2="463" y2="29.7"/>
			<line fill="none" stroke="#FFFFFF" stroke-miterlimit="10" x1="490.2" y1="-13.4" x2="466.3" y2="30.2"/>
			<line fill="none" stroke="#FFFFFF" stroke-miterlimit="10" x1="493.5" y1="-12.9" x2="469.7" y2="30.7"/>
			<line fill="none" stroke="#FFFFFF" stroke-miterlimit="10" x1="496.8" y1="-12.4" x2="473" y2="31.2"/>
			<line fill="none" stroke="#FFFFFF" stroke-miterlimit="10" x1="500.2" y1="-11.9" x2="476.3" y2="31.8"/>
			<line fill="none" stroke="#FFFFFF" stroke-miterlimit="10" x1="503.5" y1="-11.4" x2="479.7" y2="32.3"/>
			<line fill="none" stroke="#FFFFFF" stroke-miterlimit="10" x1="506.8" y1="-10.9" x2="483" y2="32.8"/>
			<line fill="none" stroke="#FFFFFF" stroke-miterlimit="10" x1="510.2" y1="-10.4" x2="486.3" y2="33.3"/>
			<line fill="none" stroke="#FFFFFF" stroke-miterlimit="10" x1="513.5" y1="-9.9" x2="489.6" y2="33.8"/>
			<line fill="none" stroke="#FFFFFF" stroke-miterlimit="10" x1="516.8" y1="-9.4" x2="493" y2="34.3"/>
			<line fill="none" stroke="#FFFFFF" stroke-miterlimit="10" x1="520.1" y1="-8.9" x2="496.3" y2="34.8"/>
			<line fill="none" stroke="#FFFFFF" stroke-miterlimit="10" x1="523.5" y1="-8.4" x2="499.6" y2="35.3"/>
			<line fill="none" stroke="#FFFFFF" stroke-miterlimit="10" x1="526.8" y1="-7.8" x2="503" y2="35.8"/>
			<line fill="none" stroke="#FFFFFF" stroke-miterlimit="10" x1="530.1" y1="-7.3" x2="506.3" y2="36.3"/>
			<line fill="none" stroke="#FFFFFF" stroke-miterlimit="10" x1="533.5" y1="-6.8" x2="509.6" y2="36.8"/>
			<line fill="none" stroke="#FFFFFF" stroke-miterlimit="10" x1="536.8" y1="-6.3" x2="513" y2="37.3"/>
			<line fill="none" stroke="#FFFFFF" stroke-miterlimit="10" x1="540.1" y1="-5.8" x2="516.3" y2="37.8"/>
			<line fill="none" stroke="#FFFFFF" stroke-miterlimit="10" x1="543.5" y1="-5.3" x2="519.6" y2="38.3"/>
			<line fill="none" stroke="#FFFFFF" stroke-miterlimit="10" x1="546.8" y1="-4.8" x2="522.9" y2="38.8"/>
			<line fill="none" stroke="#FFFFFF" stroke-miterlimit="10" x1="550.1" y1="-4.3" x2="526.3" y2="39.3"/>
			<line fill="none" stroke="#FFFFFF" stroke-miterlimit="10" x1="553.4" y1="-3.8" x2="529.6" y2="39.8"/>
			<line fill="none" stroke="#FFFFFF" stroke-miterlimit="10" x1="556.8" y1="-3.3" x2="532.9" y2="40.3"/>
			<line fill="none" stroke="#FFFFFF" stroke-miterlimit="10" x1="560.1" y1="-2.8" x2="536.3" y2="40.8"/>
			<line fill="none" stroke="#FFFFFF" stroke-miterlimit="10" x1="563.4" y1="-2.3" x2="539.6" y2="41.3"/>
			<line fill="none" stroke="#FFFFFF" stroke-miterlimit="10" x1="566.8" y1="-1.8" x2="542.9" y2="41.8"/>
			<line fill="none" stroke="#FFFFFF" stroke-miterlimit="10" x1="570.1" y1="-1.3" x2="546.2" y2="42.3"/>
			<line fill="none" stroke="#FFFFFF" stroke-miterlimit="10" x1="573.4" y1="-0.8" x2="549.6" y2="42.8"/>
			<line fill="none" stroke="#FFFFFF" stroke-miterlimit="10" x1="576.7" y1="-0.3" x2="552.9" y2="43.3"/>
			<line fill="none" stroke="#FFFFFF" stroke-miterlimit="10" x1="580.1" y1="0.2" x2="556.2" y2="43.9"/>
			<line fill="none" stroke="#FFFFFF" stroke-miterlimit="10" x1="583.4" y1="0.7" x2="559.6" y2="44.4"/>
			<line fill="none" stroke="#FFFFFF" stroke-miterlimit="10" x1="586.7" y1="1.2" x2="562.9" y2="44.9"/>
			<line fill="none" stroke="#FFFFFF" stroke-miterlimit="10" x1="590.1" y1="1.7" x2="566.2" y2="45.4"/>
			<line fill="none" stroke="#FFFFFF" stroke-miterlimit="10" x1="593.4" y1="2.2" x2="569.6" y2="45.9"/>
			<line fill="none" stroke="#FFFFFF" stroke-miterlimit="10" x1="596.7" y1="2.7" x2="572.9" y2="46.4"/>
			<line fill="none" stroke="#FFFFFF" stroke-miterlimit="10" x1="600.1" y1="3.2" x2="576.2" y2="46.9"/>
			<line fill="none" stroke="#FFFFFF" stroke-miterlimit="10" x1="603.4" y1="3.7" x2="579.5" y2="47.4"/>
			<line fill="none" stroke="#FFFFFF" stroke-miterlimit="10" x1="606.7" y1="4.3" x2="582.9" y2="47.9"/>
		</g>
	</g>
	<g>
		<rect id="SVGID_13_" x="387.1" y="-3.8" fill="none" stroke="#FFFFFF" stroke-miterlimit="10" width="155" height="14.7"/>
	</g>
</g>
</svg>
