<?xml version="1.0" encoding="utf-8"?>
<!-- Generator: Adobe Illustrator 19.0.1, SVG Export Plug-In . SVG Version: 6.00 Build 0)  -->
<svg version="1.1" id="Layer_1" xmlns="http://www.w3.org/2000/svg" xmlns:xlink="http://www.w3.org/1999/xlink" x="0px" y="0px"
	 width="269.2px" height="310.8px" viewBox="0 0 269.2 310.8" enable-background="new 0 0 269.2 310.8" xml:space="preserve">
<line fill="none" stroke="#3C3C3C" stroke-width="0.5" stroke-miterlimit="10" x1="115.7" y1="188.4" x2="115.7" y2="223.4"/>
<line fill="none" stroke="#3C3C3C" stroke-width="0.5" stroke-miterlimit="10" x1="177" y1="137.7" x2="211.7" y2="144.4"/>
<line fill="none" stroke="#FFFFFF" stroke-miterlimit="10" x1="148.1" y1="43.5" x2="137.7" y2="82.2"/>
<circle opacity="0.18" fill="#FFFFFF" enable-background="new    " cx="119.1" cy="155.4" r="117.4"/>
<g>
	<g>
		<defs>
			<circle id="SVGID_1_" cx="117.8" cy="155.7" r="117.8"/>
		</defs>
		<clipPath id="SVGID_2_">
			<use xlink:href="#SVGID_1_"  overflow="visible"/>
		</clipPath>
		<polygon clip-path="url(#SVGID_2_)" fill="#829693" points="117.8,37.9 117.8,87.6 153.5,103.4 183.3,57.6 168.9,33.3 		"/>
	</g>
	<g>
		<defs>
			<circle id="SVGID_3_" cx="117.8" cy="155.7" r="117.8"/>
		</defs>
		<clipPath id="SVGID_4_">
			<use xlink:href="#SVGID_3_"  overflow="visible"/>
		</clipPath>
		<polygon clip-path="url(#SVGID_4_)" fill="#E9AA22" points="241.5,106.3 175.7,131.5 159.8,93.1 190.7,46.5 		"/>
	</g>
	<g>
		<defs>
			<circle id="SVGID_5_" cx="117.8" cy="155.7" r="117.8"/>
		</defs>
		<clipPath id="SVGID_6_">
			<use xlink:href="#SVGID_5_"  overflow="visible"/>
		</clipPath>
		<polyline clip-path="url(#SVGID_6_)" fill="#E9AA22" points="181.6,130 256.3,100.5 266,148.7 269.2,155.7 183.3,155.8 181.6,130 
					"/>
	</g>
</g>
<line fill="none" stroke="#D4D4D4" stroke-miterlimit="10" x1="117.8" y1="2" x2="117.8" y2="231.1"/>
<line fill="none" stroke="#3C3C3C" stroke-miterlimit="10" x1="0" y1="155.7" x2="235.6" y2="155.7"/>
<g>
	<line fill="none" stroke="#FFFFFF" stroke-width="3" stroke-miterlimit="10" x1="256.3" y1="211.1" x2="47.9" y2="127.5"/>
	<line fill="none" stroke="#3C3C3C" stroke-miterlimit="10" x1="142.9" y1="83" x2="79.4" y2="267.1"/>
</g>
<g>
	<line fill="none" stroke="#3C3C3C" stroke-miterlimit="10" x1="161.9" y1="264.9" x2="73.7" y2="46.5"/>
	<line fill="none" stroke="#3C3C3C" stroke-miterlimit="10" x1="8.6" y1="199.8" x2="189.3" y2="127"/>
</g>
<g>
	<line fill="none" stroke="#3C3C3C" stroke-miterlimit="10" x1="140.5" y1="271.4" x2="96" y2="40.1"/>
	<line fill="none" stroke="#3C3C3C" stroke-miterlimit="10" x1="193.8" y1="141.5" x2="2.6" y2="178"/>
</g>
<g>
	<line fill="none" stroke="#D4D4D4" stroke-miterlimit="10" x1="89.5" y1="306" x2="132.8" y2="80.3"/>
	<line fill="none" stroke="#3C3C3C" stroke-miterlimit="10" x1="233.9" y1="178" x2="43.8" y2="141.4"/>
	<line fill="none" stroke="#3C3C3C" stroke-miterlimit="10" x1="235.4" y1="166.8" x2="42.3" y2="152.5"/>
</g>
<g>
	<line fill="none" stroke="#3C3C3C" stroke-miterlimit="10" x1="53.2" y1="253.9" x2="160.5" y2="92"/>
	<line fill="none" stroke="#3C3C3C" stroke-miterlimit="10" x1="216.4" y1="220.8" x2="20.1" y2="90.6"/>
</g>
<g>
	<line fill="none" stroke="#3C3C3C" stroke-miterlimit="10" x1="18.9" y1="219.1" x2="183.3" y2="114.2"/>
	<line fill="none" stroke="#3C3C3C" stroke-miterlimit="10" x1="181.6" y1="255" x2="54.9" y2="56.4"/>
</g>
<g>
	<line fill="none" stroke="#3C3C3C" stroke-miterlimit="10" x1="186.9" y1="121" x2="13.1" y2="208.9"/>
	<line fill="none" stroke="#3C3C3C" stroke-miterlimit="10" x1="171.4" y1="260.8" x2="65.1" y2="50.6"/>
</g>
<g>
	<line fill="none" stroke="#3C3C3C" stroke-miterlimit="10" x1="229.7" y1="192.7" x2="45.8" y2="133.3"/>
	<line fill="none" stroke="#3C3C3C" stroke-miterlimit="10" x1="138.1" y1="81.7" x2="87.1" y2="270.4"/>
</g>
<g>
	<line fill="none" stroke="#3C3C3C" stroke-miterlimit="10" x1="131.8" y1="272.7" x2="104.7" y2="38.7"/>
	<line fill="none" stroke="#3C3C3C" stroke-miterlimit="10" x1="194.4" y1="147.2" x2="1.2" y2="169.3"/>
</g>
<line fill="none" stroke="#FFFFFF" stroke-miterlimit="10" x1="140.5" y1="38.7" x2="132.5" y2="80.4"/>
<line fill="none" stroke="#FFFFFF" stroke-miterlimit="10" x1="148.5" y1="42.2" x2="137.7" y2="82.4"/>
<path fill="none" stroke="#D4D4D4" stroke-miterlimit="10" d="M142.9,83.9"/>
<line fill="none" stroke="#FFFFFF" stroke-miterlimit="10" x1="155.7" y1="45" x2="142.6" y2="83"/>
<line fill="none" stroke="#FFFFFF" stroke-miterlimit="10" x1="182.4" y1="58.8" x2="160.4" y2="92"/>
<line fill="none" stroke="#FFFFFF" stroke-miterlimit="10" x1="217.1" y1="93" x2="183.3" y2="114.6"/>
<line fill="none" stroke="#FFFFFF" stroke-miterlimit="10" x1="222.9" y1="102.8" x2="185.3" y2="121.8"/>
<line fill="none" stroke="#FFFFFF" stroke-miterlimit="10" x1="229.7" y1="110.5" x2="187.8" y2="127.4"/>
<line fill="none" stroke="#FFFFFF" stroke-miterlimit="10" x1="232.9" y1="133.9" x2="189.5" y2="142.3"/>
<line fill="none" stroke="#FFFFFF" stroke-miterlimit="10" x1="233.9" y1="142.3" x2="186" y2="148.1"/>
<line fill="none" stroke="#FFFFFF" stroke-miterlimit="10" x1="234.5" y1="147.8" x2="186.1" y2="151.6"/>
<line fill="none" stroke="#FFFFFF" stroke-miterlimit="10" x1="235.4" y1="155.4" x2="188.6" y2="155.4"/>
<circle fill="#FFFFFF" cx="117.8" cy="155.4" r="75.4"/>
<circle fill="none" stroke="#3C3C3C" stroke-width="4" stroke-miterlimit="10" cx="117.8" cy="155.4" r="75.4"/>
<circle fill="#3C3C3C" cx="117.8" cy="155.4" r="68.5"/>
<text transform="matrix(1 0 0 1 65.8821 167.0028)" fill="#FFFFFF" font-family="'AvenirNextCondensed-Regular'" font-size="36.2296px">8</text>
<text transform="matrix(1 0 0 1 82.8821 167.0028)" fill="#FFFFFF" font-family="'AvenirNextCondensed-UltraLight'" font-size="36.2296px">/</text>
<text transform="matrix(1 0 0 1 93.7821 167.0028)" fill="#FFFFFF" font-family="'AvenirNextCondensed-Regular'" font-size="36.2296px">12</text>
<text transform="matrix(1 0 0 1 127.8821 167.0028)" fill="#FFFFFF" font-family="'AvenirNextCondensed-UltraLight'" font-size="36.2296px">/</text>
<text transform="matrix(1 0 0 1 138.6821 167.0028)" fill="#FFFFFF" font-family="'AvenirNextCondensed-Regular'" font-size="36.2296px">16</text>
<text transform="matrix(1 0 0 1 81.2086 125.4657)" fill="#E9AA22" font-family="'Avenir-Light'" font-size="11.4409px">Next Deadline</text>
<text transform="matrix(1 0 0 1 72.8274 186.9745)" fill="#E9AA22" font-family="'Avenir-Light'" font-size="11.4409px">Concept Meeting</text>
<circle fill="none" stroke="#3C3C3C" stroke-width="4" stroke-miterlimit="10" cx="119.1" cy="155.4" r="117.4"/>
<path fill="#E9AA22" d="M268.9,127.4l-40.9,6.5l-4.5-20.2L260,97.2l4.8,12.2c0.7,1.8,1.2,3.6,1.6,5.4L268.9,127.4z"/>
<circle fill="none" cx="119.1" cy="155.4" r="116.4"/>
</svg>
