<?xml version="1.0" encoding="utf-8"?>
<!-- Generator: Adobe Illustrator 19.0.1, SVG Export Plug-In . SVG Version: 6.00 Build 0)  -->
<svg version="1.1" id="Layer_1" xmlns="http://www.w3.org/2000/svg" xmlns:xlink="http://www.w3.org/1999/xlink" x="0px" y="0px"
	 width="627.3px" height="405.4px" viewBox="353.7 -171.6 627.3 405.4" style="enable-background:new 353.7 -171.6 627.3 405.4;"
	 xml:space="preserve">
<style type="text/css">
	.st0{opacity:0.18;fill:#FFFFFF;enable-background:new    ;}
	.st1{fill:#939598;}
	.st2{fill:#D4D4D4;}
	.st3{fill:none;stroke:#939598;stroke-width:2;stroke-miterlimit:10;}
	.st4{fill:none;stroke:#3C3C3C;stroke-width:0.5;stroke-miterlimit:10;}
	.st5{fill:none;stroke:#FFFFFF;stroke-miterlimit:10;}
	.st6{fill:#3C3C3C;}
	.st7{clip-path:url(#SVGID_2_);fill:#829693;}
	.st8{clip-path:url(#SVGID_4_);fill:#E9AA22;}
	.st9{fill:none;stroke:#D4D4D4;stroke-width:3;stroke-miterlimit:10;}
	.st10{fill:none;stroke:#3C3C3C;stroke-width:2;stroke-miterlimit:10;}
	.st11{fill:none;stroke:#D4D4D4;stroke-miterlimit:10;}
	.st12{fill:none;stroke:#3C3C3C;stroke-width:4;stroke-miterlimit:10;}
	.st13{fill:#E9AA22;}
	.st14{fill:#829693;}
	.st15{font-family:'Avenir-Black';}
	.st16{font-size:14px;}
	.st17{font-family:'Avenir-Light';}
	.st18{font-size:12px;}
	.st19{fill:#FFFFFF;}
	.st20{font-family:'AvenirNextCondensed-Regular';}
	.st21{font-size:44.338px;}
	.st22{font-family:'AvenirNextCondensed-UltraLight';}
	.st23{font-size:14.0015px;}
	.st24{fill:none;stroke:#939598;stroke-miterlimit:10;}
</style>
<g id="Layer_1_1_">
	<circle class="st0" cx="669.6" cy="49.8" r="159.7"/>
	<path class="st1" d="M566-69.5c16.1-15.6,52.9-31.6,70.9-35.6l13.4,63.3l-43.3,22L566-69.5z"/>
	<path class="st2" d="M596.6-32.7c17.6-15,32.2-20.4,50.1-24.5l7.7,20.9L611-14.1L596.6-32.7z"/>
	<path class="st1" d="M519.6,1.7c6.8-23.7,31.9-61.6,46.5-71.3l41,49.8l-27.3,45L519.6,1.7z"/>
	<path class="st2" d="M544.8,11.8c6.8-23.7,24.3-47.4,39.1-59.6l23.1,28l-24.5,46.3L544.8,11.8z"/>
	<path class="st1" d="M515.3,82.9c-4.9-24.2-5-57.7,4.2-81.2l60.2,23.5l-0.8,46.5L515.3,82.9z"/>
	<polyline class="st3" points="667.7,-121 692.3,-159.7 740.3,-159.7 	"/>
	<line class="st4" x1="740.3" y1="28.2" x2="782.8" y2="36.4"/>
	<line class="st5" x1="705" y1="-87.1" x2="692.2" y2="-39.7"/>
	<polygon class="st6" points="670,-29.4 648.7,-29.4 634.6,-116.8 670,-116.8 	"/>
	<polygon class="st6" points="584.2,84.2 577.8,67.7 489.8,84.9 502.7,115.8 	"/>
	<line class="st4" x1="665.3" y1="90.2" x2="665.3" y2="133.1"/>
	<g>
		<g>
			<defs>
				<circle id="SVGID_1_" cx="667.8" cy="50.2" r="160.1"/>
			</defs>
			<clipPath id="SVGID_2_">
				<use xlink:href="#SVGID_1_"  style="overflow:visible;"/>
			</clipPath>
			<polygon class="st7" points="667.8,-109.9 667.8,-42.4 716.3,-20.9 756.9,-83.3 737.3,-116.3 			"/>
		</g>
		<g>
			<defs>
				<circle id="SVGID_3_" cx="667.8" cy="50.2" r="160.1"/>
			</defs>
			<clipPath id="SVGID_4_">
				<use xlink:href="#SVGID_3_"  style="overflow:visible;"/>
			</clipPath>
			<polygon class="st8" points="874.2,60.1 795,195 619.7,233.6 647.5,123.2 726.3,76.3 718.8,-25.1 767,-98.4 			"/>
		</g>
	</g>
	<line class="st9" x1="667.7" y1="-125.7" x2="667.9" y2="142.5"/>
	<line class="st9" x1="504.5" y1="117" x2="754.3" y2="15.7"/>
	<g>
		<line class="st10" x1="634.6" y1="233.6" x2="686.2" y2="-42.1"/>
		<line class="st10" x1="834.5" y1="82.9" x2="577.3" y2="32.6"/>
		<line class="st10" x1="834.5" y1="64" x2="575.5" y2="46.3"/>
	</g>
	<g>
		<line class="st10" x1="827.9" y1="99.7" x2="579.7" y2="22.8"/>
		<line class="st10" x1="712.5" y1="-109.9" x2="626.5" y2="203.6"/>
	</g>
	<g>
		<line class="st10" x1="686.4" y1="210.4" x2="657.7" y2="-42.4"/>
		<line class="st10" x1="829.3" y1="28.3" x2="574.5" y2="60.6"/>
	</g>
	<line class="st10" x1="698.6" y1="-109.9" x2="685.9" y2="-41.9"/>
	<path class="st11" d="M698.6-37.7"/>
	<line class="st10" x1="829.3" y1="40.5" x2="751.4" y2="45.2"/>
	<g>
		<line class="st10" x1="596.3" y1="191.7" x2="740.3" y2="-93.4"/>
		<line class="st10" x1="750" y1="91.7" x2="501.8" y2="-5.2"/>
	</g>
	<g>
		<line class="st10" x1="537.8" y1="143.8" x2="801.3" y2="-44.9"/>
		<line class="st10" x1="724.7" y1="122.9" x2="557.3" y2="-80.1"/>
	</g>
	<circle class="st12" cx="669.6" cy="49.8" r="159.7"/>
	<path class="st13" d="M729.7,168.5l16.5,32c42.5-17.9,67.4-48.3,78.6-87.1l-69.9-27.3l-45.3,43.1L729.7,168.5z"/>
	<g>
		<line class="st10" x1="842.8" y1="120.1" x2="582.3" y2="15.7"/>
		<line class="st10" x1="721.9" y1="-101.1" x2="616.7" y2="200.5"/>
	</g>
	<g>
		<line class="st10" x1="819.7" y1="-25.1" x2="525.2" y2="123.2"/>
		<line class="st10" x1="750" y1="206.8" x2="626.5" y2="-32.7"/>
	</g>
	<line class="st10" x1="756.9" y1="-83.3" x2="718.8" y2="-25.1"/>
	<text transform="matrix(1 0 0 1 847.7148 -159.6668)" class="st14 st15 st16">67%</text>
	<g>
		<text transform="matrix(1 0 0 1 746.7151 -159.6668)" class="st2 st15 st16">MILESTONE 1</text>
	</g>
	<g>
		<text transform="matrix(1 0 0 1 391.3578 -142.3332)" class="st2 st17 st18">MILESTONE 2</text>
	</g>
	<circle class="st6" cx="667.8" cy="49.8" r="93.9"/>
	<text transform="matrix(1 0 0 1 604.3322 61.1193)" class="st19 st20 st21">8</text>
	<text transform="matrix(1 0 0 1 625.1322 61.1193)" class="st19 st22 st21">/</text>
	<text transform="matrix(1 0 0 1 638.4323 61.1193)" class="st19 st20 st21">12</text>
	<text transform="matrix(1 0 0 1 680.1322 61.1193)" class="st19 st22 st21">/</text>
	<text transform="matrix(1 0 0 1 693.4323 61.1193)" class="st19 st20 st21">16</text>
	<text transform="matrix(1 0 0 1 623.0889 10.2867)" class="st2 st17 st23">Next Deadline</text>
	<text transform="matrix(1 0 0 1 612.8326 85.5607)" class="st2 st17 st23">Concept Meeting</text>
	<line class="st11" x1="563.3" y1="-72.3" x2="557.9" y2="-79.6"/>
	<line class="st11" x1="514.2" y1="-0.1" x2="505.7" y2="-3.5"/>
	<polyline class="st24" points="602.7,-86.6 573.9,-142.3 512,-142.3 	"/>
	<polyline class="st24" points="540.1,-37.7 514.2,-63.4 477.3,-63.4 	"/>
	<text transform="matrix(1 0 0 1 477.3091 -142.3332)" class="st14 st17 st16">10%</text>
	<g>
		<text transform="matrix(1 0 0 1 353.7156 -63.4281)" class="st2 st17 st18">MILESTONE 3</text>
	</g>
	<text transform="matrix(1 0 0 1 439.6668 -63.4281)" class="st14 st17 st16">43%</text>
	<g>
		<text transform="matrix(1 0 0 1 360.3821 40.4716)" class="st2 st17 st18">MILESTONE 4</text>
	</g>
	<text transform="matrix(1 0 0 1 446.3333 40.4716)" class="st14 st17 st16">0%</text>
	<polyline class="st24" points="535.8,42.8 504.2,42.8 473.2,42.8 	"/>
</g>
</svg>
