<svg id="Layer_1" xmlns="http://www.w3.org/2000/svg" viewBox="0 0 198 198"><path fill="#809392" d="M0 0h198v198H0z"/><path fill="#FFF" d="M33.7 39.4v.6h-1.2c0 4.4-.2 9.6-2 11.4-.4.4-.9.6-1.5.6-1 0-1.9-.8-2.6-2.6-1-2.4-1.7-7-1.7-11.4 0-4.9.8-9.6 2.1-11.9.6-1.2 1.3-1.7 2.2-1.7.7 0 1.1.4 1.6 1.6.1.3.2.3.3.3.2 0 .3-.2.4-1.5v-.1h.7v8.1h-.6v-.1c-.3-2.6-.8-4.9-1.4-6.6-.3-.7-.6-1.2-.9-1.2-.5 0-.8.5-1 1.8-.1.5-.1 1.4-.2 2.8-.1.8-.1 1.5-.1 2.3v5.4c0 6.2.1 10 .2 11.9.1 1.3.5 2 1.1 2 .7 0 1.1-1.2 1.1-3.5V40h-1.4v-.6h4.9zm27.4-14.6v.6h1.4V51h-1.4v.6h8.6v-9H69v.1c-.1 3-.5 4.9-1.2 6.4-.6 1.2-1.3 1.7-2.7 1.9V37.4c1.2.1 1.6.9 1.9 5.2v.7h.6V31.4H67v.1c-.2 4.3-.9 5.2-1.9 5.2V25.4c1.6.1 2.1.4 2.7 1.5.5 1 1 2.3 1.3 5.4v.1h.6v-7.6h-8.6zm103.5 0v.6h1.4V51h-1.4v.6h8.6v-9h-.7v.1c-.1 3-.5 4.9-1.2 6.4-.5 1.2-1.3 1.7-2.7 1.9V37.4c1.2.1 1.7.9 1.9 5.2v.7h.6V31.4h-.6v.1c-.3 4.3-.9 5.2-2 5.2V25.4c1.6.1 2.1.4 2.7 1.5.5 1 1 2.3 1.3 5.4v.1h.6v-7.6h-8.5zm-80.2 0v.6h.1c1.1.3 1.5.7 1.5 1.7 0 .4-.1 1.2-.3 2.1 0 0-1.1 5.4-1.5 7.2l-2.3-11h1.2v-.6h-4.9v.6h1.1L82 38v13h-1.4v.6H86V51h-1.4V38l1.8-8.8c.5-2.5 1.1-3.4 2.3-3.8h.1v-.6h-4.4zm16.3 11.9c-2.6-5-3.3-6.7-3.3-8.7 0-1 .3-1.8.7-2.2.3-.3.6-.4 1-.4 1.5 0 2.6 2.6 3.3 7.4v.1h.6v-8.1h-.6V25.1c-.1 1.4-.2 1.6-.4 1.6-.1 0-.2 0-.3-.3l-.3-.4c-.7-1-1.4-1.4-2.3-1.4-1.9 0-3.3 2.2-3.3 5.4 0 2.3.7 4.5 2.5 8.2 1.4 2.7 1.8 3.7 2.3 5.1.8 2 1.1 3.5 1.1 4.8 0 1.9-.6 2.9-1.7 2.9-1 0-1.8-.9-2.5-3.2-.5-1.8-.9-3.8-1.1-5.6v-.1h-.6v9.6h.6v-.1c.1-1.7.2-2 .6-2 .2 0 .2 0 .7.7.8 1.2 1.5 1.6 2.5 1.6.6 0 1.2-.3 1.8-.8 1-1 1.7-3 1.7-5.2 0-1.1-.2-2.4-.6-3.8-.6-1.7-1.1-3-2.4-5.4M112 24.8v8.1h.7v-.1c.1-1.9.4-3.8.8-5.1.4-1.2.9-1.9 1.5-2.2V51h-1.4v.6h5.4V51h-1.4V25.5c1.3.5 2.1 2.9 2.4 7v.4h.6v-8.1H112zm25.5 3.9c.5 1.8.8 4.7.8 6.7 0 3.2-.5 6.5-1.4 8.5-.7 1.6-1.7 2.4-3 2.4-1 0-1.8-.4-2.4-1.2-.6-.8-1-1.6-1.3-3-.5-2-.8-4.6-.8-6.7 0-3.2.5-6.3 1.4-8.5.6-1.5 1.7-2.4 3.1-2.4.9 0 1.8.4 2.3 1.2.5.8.9 1.6 1.3 3m-5.1 6.7v5.3c0 2.8.1 3.8.4 4.3.2.3.5.5 1 .5s.9-.4 1.1-.9c.2-.6.2-1.2.2-2.8v-3.3-3.2-3.2c0-2.9-.1-3.8-.1-5-.1-1.7-.8-1.9-1.2-1.9-.5 0-1 .3-1.1.9-.2.6-.2 1.2-.2 2.8 0 1.5-.1 4.7-.1 6.5m20-10.6v.6h.1c1.4.3 1.6.8 1.6 3.5v12.4l-4-16.4h-3.5v.6h1.4v20.8c0 4.2-.3 4.6-1.8 4.9h-.1v.6h4.3V51h-.1c-1.2-.2-1.6-.7-1.6-2.6 0-.6-.1-1.9-.1-2.3V29.9l5.6 22h.6V30.2c0-4.1.4-4.7 1.8-4.9h.1v-.6h-4.3zm-18.5 24.8c-1.5 0-3.6.3-3.6 1.2 0 .1 0 .2.1.4.4.5 1.8.9 3.5.9s3.1-.4 3.5-.9c.1-.1.1-.2.1-.4 0-.1 0-.2-.1-.4-.4-.5-1.8-.8-3.5-.8M52 51h.7v.6H50c-.8 0-1.3-.4-1.3-1.3v-9.4c0-2.5-.7-3.3-2.5-3.4V51h1.3v.6h-5.3V51h1.4V25.4h-1.4v-.6h3.7c1.9 0 3.1.4 4 1.5 1.1 1.3 1.6 2.9 1.6 5.1 0 3.2-1.4 5.2-3.7 5.9 1.6.4 2.5 1.1 3 2.3.4.9.5 1.8.5 3.7v7c0 .5.2.7.7.7m-5.8-25.6v11.5c1.8-.1 2.5-.9 2.5-5.6 0-5-.8-5.8-2.5-5.9"/></svg>