<svg id="Layer_1" xmlns="http://www.w3.org/2000/svg" width="898.7" height="15.4" viewBox="399 46.4 898.7 15.4"><path fill="none" stroke="#D4D4D4" stroke-miterlimit="10" d="M398.5 44.1h899.4v11.7H398.5z"/><path fill="#E9AA22" d="M786.7 52.4h153.8v6.8H786.7z"/><path fill="#829693" d="M398.5 44.1h294.9v11.7H398.5z"/><path fill="#E9AA22" d="M693.4 44.1h337.3v11.7H693.4z"/><path fill="#E9AA22" d="M711.4 44.1h337.3v11.7H711.4z"/><path fill="none" stroke="#FFF" stroke-miterlimit="10" d="M545.9 44.1v11.7M636.6 44.1v11.7M693.4 44.1v11.7M724.3 44.1v11.7M755.1 44.1v11.7M786 44.1v11.7M941 44.1v11.7M971.9 44.1v11.7"/><path fill="none" stroke="#D4D4D4" stroke-miterlimit="10" d="M1059.5 44.1v11.7M1090.4 44.1v11.7M1141.3 44.1v11.7M1168.4 44.1v11.7M1219.4 44.1v11.7M1243.1 44.1v11.7M1278.7 44.1v11.7"/></svg>