<?xml version="1.0" encoding="utf-8"?>
<!-- Generator: Adobe Illustrator 19.0.1, SVG Export Plug-In . SVG Version: 6.00 Build 0)  -->
<svg version="1.1" id="Layer_1" xmlns="http://www.w3.org/2000/svg" xmlns:xlink="http://www.w3.org/1999/xlink" x="0px" y="0px"
	 width="898.7px" height="15.4px" viewBox="399 46.4 898.7 15.4" enable-background="new 399 46.4 898.7 15.4" xml:space="preserve"
	>
<rect x="398.5" y="44.1" fill="none" stroke="#D4D4D4" stroke-miterlimit="10" width="899.4" height="11.7"/>
<rect x="786.7" y="52.4" fill="#E9AA22" width="153.8" height="6.8"/>
<rect x="398.5" y="44.1" fill="#829693" width="294.9" height="11.7"/>
<rect x="693.4" y="44.1" fill="#E9AA22" width="337.3" height="11.7"/>
<rect x="711.4" y="44.1" fill="#E9AA22" width="337.3" height="11.7"/>
<line fill="none" stroke="#FFFFFF" stroke-miterlimit="10" x1="545.9" y1="44.1" x2="545.9" y2="55.8"/>
<line fill="none" stroke="#FFFFFF" stroke-miterlimit="10" x1="636.6" y1="44.1" x2="636.6" y2="55.8"/>
<line fill="none" stroke="#FFFFFF" stroke-miterlimit="10" x1="693.4" y1="44.1" x2="693.4" y2="55.8"/>
<line fill="none" stroke="#FFFFFF" stroke-miterlimit="10" x1="724.3" y1="44.1" x2="724.3" y2="55.8"/>
<line fill="none" stroke="#FFFFFF" stroke-miterlimit="10" x1="755.1" y1="44.1" x2="755.1" y2="55.8"/>
<line fill="none" stroke="#FFFFFF" stroke-miterlimit="10" x1="786" y1="44.1" x2="786" y2="55.8"/>
<line fill="none" stroke="#FFFFFF" stroke-miterlimit="10" x1="941" y1="44.1" x2="941" y2="55.8"/>
<line fill="none" stroke="#FFFFFF" stroke-miterlimit="10" x1="971.9" y1="44.1" x2="971.9" y2="55.8"/>
<line fill="none" stroke="#D4D4D4" stroke-miterlimit="10" x1="1059.5" y1="44.1" x2="1059.5" y2="55.8"/>
<line fill="none" stroke="#D4D4D4" stroke-miterlimit="10" x1="1090.4" y1="44.1" x2="1090.4" y2="55.8"/>
<line fill="none" stroke="#D4D4D4" stroke-miterlimit="10" x1="1141.3" y1="44.1" x2="1141.3" y2="55.8"/>
<line fill="none" stroke="#D4D4D4" stroke-miterlimit="10" x1="1168.4" y1="44.1" x2="1168.4" y2="55.8"/>
<line fill="none" stroke="#D4D4D4" stroke-miterlimit="10" x1="1219.4" y1="44.1" x2="1219.4" y2="55.8"/>
<line fill="none" stroke="#D4D4D4" stroke-miterlimit="10" x1="1243.1" y1="44.1" x2="1243.1" y2="55.8"/>
<line fill="none" stroke="#D4D4D4" stroke-miterlimit="10" x1="1278.7" y1="44.1" x2="1278.7" y2="55.8"/>
</svg>
