<?xml version="1.0" encoding="utf-8"?>
<!-- Generator: Adobe Illustrator 19.0.1, SVG Export Plug-In . SVG Version: 6.00 Build 0)  -->
<svg version="1.1" id="Layer_1" xmlns="http://www.w3.org/2000/svg" xmlns:xlink="http://www.w3.org/1999/xlink" x="0px" y="0px"
	 width="310.8px" height="310.8px" viewBox="0 0 310.8 310.8" enable-background="new 0 0 310.8 310.8" xml:space="preserve">
<line fill="none" stroke="#3C3C3C" stroke-width="0.5" stroke-miterlimit="10" x1="152" y1="188.4" x2="152" y2="223.4"/>
<line fill="none" stroke="#3C3C3C" stroke-width="0.5" stroke-miterlimit="10" x1="213.3" y1="137.7" x2="248" y2="144.4"/>
<line fill="none" stroke="#FFFFFF" stroke-miterlimit="10" x1="184.4" y1="43.5" x2="174" y2="82.2"/>
<circle opacity="0.18" fill="#FFFFFF" enable-background="new    " cx="155.4" cy="155.4" r="117.4"/>
<g>
	<g>
		<defs>
			<circle id="SVGID_1_" cx="154.1" cy="155.7" r="117.8"/>
		</defs>
		<clipPath id="SVGID_2_">
			<use xlink:href="#SVGID_1_"  overflow="visible"/>
		</clipPath>
		<polygon clip-path="url(#SVGID_2_)" fill="#829693" points="154.1,37.9 154.1,87.6 189.8,103.4 219.6,57.6 205.2,33.3 		"/>
	</g>
	<g>
		<defs>
			<circle id="SVGID_3_" cx="154.1" cy="155.7" r="117.8"/>
		</defs>
		<clipPath id="SVGID_4_">
			<use xlink:href="#SVGID_3_"  overflow="visible"/>
		</clipPath>
		<polygon clip-path="url(#SVGID_4_)" fill="#E9AA22" points="277.8,106.3 212,131.5 196.1,93.1 227,46.5 		"/>
	</g>
	<g>
		<defs>
			<circle id="SVGID_5_" cx="154.1" cy="155.7" r="117.8"/>
		</defs>
		<clipPath id="SVGID_6_">
			<use xlink:href="#SVGID_5_"  overflow="visible"/>
		</clipPath>
		<polyline clip-path="url(#SVGID_6_)" fill="#E9AA22" points="217.9,130 292.6,100.5 302.3,148.7 305.5,155.7 219.6,155.8 
			217.9,130 		"/>
	</g>
</g>
<line fill="none" stroke="#D4D4D4" stroke-miterlimit="10" x1="154.1" y1="2" x2="154.1" y2="231.1"/>
<line fill="none" stroke="#3C3C3C" stroke-miterlimit="10" x1="36.3" y1="155.7" x2="271.9" y2="155.7"/>
<g>
	<line fill="none" stroke="#FFFFFF" stroke-width="3" stroke-miterlimit="10" x1="292.6" y1="211.1" x2="84.2" y2="127.5"/>
	<line fill="none" stroke="#3C3C3C" stroke-miterlimit="10" x1="179.2" y1="83" x2="115.7" y2="267.1"/>
</g>
<g>
	<line fill="none" stroke="#3C3C3C" stroke-miterlimit="10" x1="198.2" y1="264.9" x2="110" y2="46.5"/>
	<line fill="none" stroke="#3C3C3C" stroke-miterlimit="10" x1="44.9" y1="199.8" x2="225.6" y2="127"/>
</g>
<g>
	<line fill="none" stroke="#3C3C3C" stroke-miterlimit="10" x1="176.8" y1="271.4" x2="132.3" y2="40.1"/>
	<line fill="none" stroke="#3C3C3C" stroke-miterlimit="10" x1="230.1" y1="141.5" x2="38.9" y2="178"/>
</g>
<g>
	<line fill="none" stroke="#D4D4D4" stroke-miterlimit="10" x1="125.8" y1="306" x2="169.1" y2="80.3"/>
	<line fill="none" stroke="#3C3C3C" stroke-miterlimit="10" x1="270.2" y1="178" x2="80.1" y2="141.4"/>
	<line fill="none" stroke="#3C3C3C" stroke-miterlimit="10" x1="271.7" y1="166.8" x2="78.6" y2="152.5"/>
</g>
<g>
	<line fill="none" stroke="#3C3C3C" stroke-miterlimit="10" x1="89.5" y1="253.9" x2="196.8" y2="92"/>
	<line fill="none" stroke="#3C3C3C" stroke-miterlimit="10" x1="252.7" y1="220.8" x2="56.4" y2="90.6"/>
</g>
<g>
	<line fill="none" stroke="#3C3C3C" stroke-miterlimit="10" x1="55.2" y1="219.1" x2="219.6" y2="114.2"/>
	<line fill="none" stroke="#3C3C3C" stroke-miterlimit="10" x1="217.9" y1="255" x2="91.2" y2="56.4"/>
</g>
<g>
	<line fill="none" stroke="#3C3C3C" stroke-miterlimit="10" x1="223.2" y1="121" x2="49.4" y2="208.9"/>
	<line fill="none" stroke="#3C3C3C" stroke-miterlimit="10" x1="207.7" y1="260.8" x2="101.4" y2="50.6"/>
</g>
<g>
	<line fill="none" stroke="#3C3C3C" stroke-miterlimit="10" x1="266" y1="192.7" x2="82.1" y2="133.3"/>
	<line fill="none" stroke="#3C3C3C" stroke-miterlimit="10" x1="174.4" y1="81.7" x2="123.4" y2="270.4"/>
</g>
<g>
	<line fill="none" stroke="#3C3C3C" stroke-miterlimit="10" x1="168.1" y1="272.7" x2="141" y2="38.7"/>
	<line fill="none" stroke="#3C3C3C" stroke-miterlimit="10" x1="230.7" y1="147.2" x2="37.5" y2="169.3"/>
</g>
<line fill="none" stroke="#FFFFFF" stroke-miterlimit="10" x1="176.8" y1="38.7" x2="168.8" y2="80.4"/>
<line fill="none" stroke="#FFFFFF" stroke-miterlimit="10" x1="184.8" y1="42.2" x2="174" y2="82.4"/>
<path fill="none" stroke="#D4D4D4" stroke-miterlimit="10" d="M179.2,83.9"/>
<line fill="none" stroke="#FFFFFF" stroke-miterlimit="10" x1="192" y1="45" x2="178.9" y2="83"/>
<line fill="none" stroke="#FFFFFF" stroke-miterlimit="10" x1="218.7" y1="58.8" x2="196.7" y2="92"/>
<line fill="none" stroke="#FFFFFF" stroke-miterlimit="10" x1="253.4" y1="93" x2="219.6" y2="114.6"/>
<line fill="none" stroke="#FFFFFF" stroke-miterlimit="10" x1="259.2" y1="102.8" x2="221.6" y2="121.8"/>
<line fill="none" stroke="#FFFFFF" stroke-miterlimit="10" x1="266" y1="110.5" x2="224.1" y2="127.4"/>
<line fill="none" stroke="#FFFFFF" stroke-miterlimit="10" x1="269.2" y1="133.9" x2="225.8" y2="142.3"/>
<line fill="none" stroke="#FFFFFF" stroke-miterlimit="10" x1="270.2" y1="142.3" x2="222.3" y2="148.1"/>
<line fill="none" stroke="#FFFFFF" stroke-miterlimit="10" x1="270.8" y1="147.8" x2="222.4" y2="151.6"/>
<line fill="none" stroke="#FFFFFF" stroke-miterlimit="10" x1="271.7" y1="155.4" x2="224.9" y2="155.4"/>
<circle fill="#FFFFFF" cx="154.1" cy="155.4" r="75.4"/>
<circle fill="none" stroke="#3C3C3C" stroke-width="4" stroke-miterlimit="10" cx="154.1" cy="155.4" r="75.4"/>
<circle fill="#3C3C3C" cx="154.1" cy="155.4" r="68.5"/>
<text transform="matrix(1 0 0 1 102.1821 167.0028)" fill="#FFFFFF" font-family="'AvenirNextCondensed-Regular'" font-size="36.2296px">8</text>
<text transform="matrix(1 0 0 1 119.1821 167.0028)" fill="#FFFFFF" font-family="'AvenirNextCondensed-UltraLight'" font-size="36.2296px">/</text>
<text transform="matrix(1 0 0 1 130.0821 167.0028)" fill="#FFFFFF" font-family="'AvenirNextCondensed-Regular'" font-size="36.2296px">12</text>
<text transform="matrix(1 0 0 1 164.1821 167.0028)" fill="#FFFFFF" font-family="'AvenirNextCondensed-UltraLight'" font-size="36.2296px">/</text>
<text transform="matrix(1 0 0 1 174.9821 167.0028)" fill="#FFFFFF" font-family="'AvenirNextCondensed-Regular'" font-size="36.2296px">16</text>
<text transform="matrix(1 0 0 1 117.5086 125.4657)" fill="#E9AA22" font-family="'Avenir-Light'" font-size="11.4409px">Next Deadline</text>
<text transform="matrix(1 0 0 1 109.1274 186.9745)" fill="#E9AA22" font-family="'Avenir-Light'" font-size="11.4409px">Concept Meeting</text>
<circle fill="none" stroke="#3C3C3C" stroke-width="4" stroke-miterlimit="10" cx="155.4" cy="155.4" r="117.4"/>
<circle fill="none" cx="155.4" cy="155.4" r="116.4"/>
<circle fill="none" stroke="#3C3C3C" stroke-width="4" stroke-miterlimit="10" cx="155.4" cy="155.4" r="153.4"/>
</svg>
