<svg id="Layer_1" xmlns="http://www.w3.org/2000/svg" xmlns:xlink="http://www.w3.org/1999/xlink" width="627.3" height="405.4" viewBox="353.7 -171.6 627.3 405.4"><style>.st0{opacity:0.18;fill:#FFFFFF;enable-background:new ;} .st1{fill:#939598;} .st2{fill:#D4D4D4;} .st3{fill:none;stroke:#939598;stroke-width:2;stroke-miterlimit:10;} .st4{fill:none;stroke:#3C3C3C;stroke-width:0.5;stroke-miterlimit:10;} .st5{fill:none;stroke:#FFFFFF;stroke-miterlimit:10;} .st6{fill:#3C3C3C;} .st7{clip-path:url(#SVGID_2_);fill:#829693;} .st8{clip-path:url(#SVGID_4_);fill:#E9AA22;} .st9{fill:none;stroke:#D4D4D4;stroke-width:3;stroke-miterlimit:10;} .st10{fill:none;stroke:#3C3C3C;stroke-width:2;stroke-miterlimit:10;} .st11{fill:none;stroke:#D4D4D4;stroke-miterlimit:10;} .st12{fill:none;stroke:#3C3C3C;stroke-width:4;stroke-miterlimit:10;} .st13{fill:#E9AA22;} .st14{fill:#829693;} .st15{font-family:&apos;Avenir-Black&apos;;} .st16{font-size:14px;} .st17{font-family:&apos;Avenir-Light&apos;;} .st18{font-size:12px;} .st19{fill:#FFFFFF;} .st20{font-family:&apos;AvenirNextCondensed-Regular&apos;;} .st21{font-size:44.338px;} .st22{font-family:&apos;AvenirNextCondensed-UltraLight&apos;;} .st23{font-size:14.0015px;} .st24{fill:none;stroke:#939598;stroke-miterlimit:10;}</style><g id="Layer_1_1_"><circle class="st0" cx="669.6" cy="49.8" r="159.7"/><path class="st1" d="M566-69.5c16.1-15.6 52.9-31.6 70.9-35.6l13.4 63.3-43.3 22-41-49.7z"/><path class="st2" d="M596.6-32.7c17.6-15 32.2-20.4 50.1-24.5l7.7 20.9L611-14.1l-14.4-18.6z"/><path class="st1" d="M519.6 1.7c6.8-23.7 31.9-61.6 46.5-71.3l41 49.8-27.3 45-60.2-23.5z"/><path class="st2" d="M544.8 11.8c6.8-23.7 24.3-47.4 39.1-59.6l23.1 28-24.5 46.3-37.7-14.7z"/><path class="st1" d="M515.3 82.9c-4.9-24.2-5-57.7 4.2-81.2l60.2 23.5-.8 46.5-63.6 11.2z"/><path class="st3" d="M667.7-121l24.6-38.7h48"/><path class="st4" d="M740.3 28.2l42.5 8.2"/><path class="st5" d="M705-87.1l-12.8 47.4"/><path class="st6" d="M670-29.4h-21.3l-14.1-87.4H670zM584.2 84.2l-6.4-16.5-88 17.2 12.9 30.9z"/><path class="st4" d="M665.3 90.2v42.9"/><defs><circle id="SVGID_1_" cx="667.8" cy="50.2" r="160.1"/></defs><clipPath id="SVGID_2_"><use xlink:href="#SVGID_1_" overflow="visible"/></clipPath><path class="st7" d="M667.8-109.9v67.5l48.5 21.5 40.6-62.4-19.6-33z"/><defs><circle id="SVGID_3_" cx="667.8" cy="50.2" r="160.1"/></defs><clipPath id="SVGID_4_"><use xlink:href="#SVGID_3_" overflow="visible"/></clipPath><path class="st8" d="M874.2 60.1L795 195l-175.3 38.6 27.8-110.4 78.8-46.9-7.5-101.4L767-98.4z"/><path class="st9" d="M667.7-125.7l.2 268.2M504.5 117L754.3 15.7"/><path class="st10" d="M634.6 233.6l51.6-275.7M834.5 82.9L577.3 32.6M834.5 64l-259-17.7M827.9 99.7L579.7 22.8M712.5-109.9l-86 313.5M686.4 210.4L657.7-42.4M829.3 28.3L574.5 60.6M698.6-109.9l-12.7 68M829.3 40.5l-77.9 4.7M596.3 191.7l144-285.1M750 91.7L501.8-5.2M537.8 143.8L801.3-44.9M724.7 122.9l-167.4-203"/><circle class="st12" cx="669.6" cy="49.8" r="159.7"/><path class="st13" d="M729.7 168.5l16.5 32c42.5-17.9 67.4-48.3 78.6-87.1l-69.9-27.3-45.3 43.1 20.1 39.3z"/><path class="st10" d="M842.8 120.1L582.3 15.7M721.9-101.1L616.7 200.5M819.7-25.1L525.2 123.2M750 206.8L626.5-32.7M756.9-83.3l-38.1 58.2"/><text transform="translate(847.715 -159.667)" class="st14 st15 st16">67%</text><text transform="translate(746.715 -159.667)" class="st2 st15 st16">MILESTONE 1</text><text transform="translate(391.358 -142.333)" class="st2 st17 st18">MILESTONE 2</text><circle class="st6" cx="667.8" cy="49.8" r="93.9"/><text transform="translate(604.332 61.12)" class="st19 st20 st21">8</text><text transform="translate(625.132 61.12)" class="st19 st22 st21">/</text><text transform="translate(638.432 61.12)" class="st19 st20 st21">12</text><text transform="translate(680.132 61.12)" class="st19 st22 st21">/</text><text transform="translate(693.432 61.12)" class="st19 st20 st21">16</text><text transform="translate(623.09 10.287)" class="st2 st17 st23">Next Deadline</text><text transform="translate(612.833 85.56)" class="st2 st17 st23">Concept Meeting</text><path class="st11" d="M563.3-72.3l-5.4-7.3M514.2-.1l-8.5-3.4"/><path class="st24" d="M602.7-86.6l-28.8-55.7H512M540.1-37.7l-25.9-25.7h-36.9"/><text transform="translate(477.31 -142.333)" class="st14 st17 st16">10%</text><g><text transform="translate(353.716 -63.428)" class="st2 st17 st18">MILESTONE 3</text></g><text transform="translate(439.667 -63.428)" class="st14 st17 st16">43%</text><g><text transform="translate(360.382 40.472)" class="st2 st17 st18">MILESTONE 4</text></g><text transform="translate(446.333 40.472)" class="st14 st17 st16">0%</text><path class="st24" d="M535.8 42.8h-62.6"/></g></svg>