<?xml version="1.0" encoding="utf-8"?>
<!-- Generator: Adobe Illustrator 18.1.1, SVG Export Plug-In . SVG Version: 6.00 Build 0)  -->
<svg version="1.1" id="Layer_1" xmlns="http://www.w3.org/2000/svg" xmlns:xlink="http://www.w3.org/1999/xlink" x="0px" y="0px"
	 viewBox="0 0 100 88.5" enable-background="new 0 0 100 88.5" xml:space="preserve">
<rect id="Bakground_3_" x="-868" y="-368.5" fill="none" stroke="#D4D4D3" stroke-miterlimit="10" width="700" height="640"/>
<g>
	<path fill="none" stroke="#D4D4D3" stroke-miterlimit="10" d="M-795.5-297h-28c-2.2,0-4-1.8-4-4v-18c0-2.2,1.8-4,4-4h5l1.5-4.6
		c0.3-0.8,1-1.4,1.9-1.4h11.1c0.9,0,1.6,0.6,1.9,1.4l1.5,4.6h5c2.2,0,4,1.8,4,4v18C-791.5-298.8-793.3-297-795.5-297z"/>
	<circle fill="none" stroke="#D4D4D3" stroke-miterlimit="10" cx="-809.5" cy="-311" r="9"/>
</g>
<g>
	<g>
		<path fill="none" stroke="#D4D4D3" stroke-miterlimit="10" d="M-731.5-328c2.2,0,4,1.8,4,4v24c0,2.2-1.8,4-4,4h-24
			c-2.2,0-4-1.8-4-4v-24c0-2.2,1.8-4,4-4H-731.5z"/>
	</g>
	<polyline fill="none" stroke="#D4D4D3" stroke-miterlimit="10" points="-759.5,-304 -750.5,-314 -739.5,-304 -733.5,-309 
		-727.5,-304 	"/>
	<circle fill="none" stroke="#D4D4D3" stroke-miterlimit="10" cx="-736.5" cy="-319" r="4"/>
</g>
<g>
	<circle fill="none" stroke="#D4D4D3" stroke-miterlimit="10" cx="-617.5" cy="-302" r="5"/>
	<path fill="none" stroke="#D4D4D3" stroke-miterlimit="10" d="M-612.5-321l11.8,1.8c0.6,0.1,1.2-0.4,1.2-1v-5c0-0.5-0.4-0.9-0.8-1
		l-11-1.7c-0.6-0.1-1.2,0.4-1.2,1v24.8"/>
</g>
<g>
	<circle fill="none" stroke="#D4D4D3" stroke-miterlimit="10" cx="-689.5" cy="-300" r="5"/>
	<path fill="none" stroke="#D4D4D3" stroke-miterlimit="10" d="M-684.5-300v-24.3c0-1,0.7-1.8,1.7-2l18-2.5c1.2-0.2,2.3,0.8,2.3,2
		v23.7"/>
	<line fill="none" stroke="#D4D4D3" stroke-miterlimit="10" x1="-684.5" y1="-319" x2="-662.5" y2="-322"/>
	<circle fill="none" stroke="#D4D4D3" stroke-miterlimit="10" cx="-667.5" cy="-303" r="5"/>
</g>
<path fill="none" stroke="#D4D4D3" stroke-miterlimit="10" d="M-537.5-327.7v31.4c0,0.9-1,1.3-1.7,0.7l-9.7-8.9
	c-0.4-0.3-0.9-0.5-1.4-0.5h-3.2c-1.7,0-3-1.3-3-3v-8c0-1.7,1.3-3,3-3h3.2c0.5,0,1-0.2,1.4-0.5l9.7-8.9
	C-538.6-329-537.5-328.6-537.5-327.7z"/>
<g>
	<path fill="none" stroke="#D4D4D3" stroke-miterlimit="10" d="M-476.5-327.7v31.4c0,0.9-1,1.3-1.7,0.7l-9.7-8.9
		c-0.4-0.3-0.9-0.5-1.4-0.5h-3.2c-1.7,0-3-1.3-3-3v-8c0-1.7,1.3-3,3-3h3.2c0.5,0,1-0.2,1.4-0.5l9.7-8.9
		C-477.6-329-476.5-328.6-476.5-327.7z"/>
	<path fill="none" stroke="#D4D4D3" stroke-miterlimit="10" d="M-472.6-320L-472.6-320c4,4.6,4,11.4,0,16l0,0"/>
	<path fill="none" stroke="#D4D4D3" stroke-miterlimit="10" d="M-468.6-325L-468.6-325c6.8,7.3,6.8,18.6,0,25.9v0"/>
</g>
<g>
	<path fill="none" stroke="#D4D4D3" stroke-miterlimit="10" d="M-411.5-327.7v31.5c0,0.9-1,1.3-1.7,0.7l-9.8-8.9
		c-0.4-0.3-0.9-0.5-1.4-0.5h-3.2c-1.7,0-3-1.3-3-3v-8c0-1.7,1.3-3,3-3h3.2c0.5,0,1-0.2,1.4-0.5l9.8-8.9
		C-412.5-329.1-411.5-328.6-411.5-327.7z"/>
	<line fill="none" stroke="#D4D4D3" stroke-miterlimit="10" x1="-406.5" y1="-317" x2="-396.5" y2="-307"/>
	<line fill="none" stroke="#D4D4D3" stroke-miterlimit="10" x1="-396.5" y1="-317" x2="-406.5" y2="-307"/>
</g>
<polygon fill="none" stroke="#D4D4D3" stroke-miterlimit="10" points="-331.9,-327.6 -365.1,-314.2 -349.6,-309.9 -345.3,-294.4 "/>
<g>
	<circle fill="none" stroke="#D4D4D3" stroke-miterlimit="10" cx="-281.5" cy="-314.9" r="5"/>
	<path fill="none" stroke="#D4D4D3" stroke-miterlimit="10" d="M-281.5-328.9c7.7,0,14,6.3,14,14c0,2-0.4,4-1.2,5.7
		c-0.6,1.4-1.5,2.8-2.6,3.9l-10.2,10.2l-10.2-10.2c-1.1-1.1-1.9-2.4-2.6-3.9c-0.8-1.7-1.2-3.7-1.2-5.7
		C-295.5-322.6-289.2-328.9-281.5-328.9z"/>
</g>
<g>
	<circle fill="none" stroke="#D4D4D3" stroke-miterlimit="10" cx="-215.5" cy="-312" r="17"/>
	<polygon fill="none" stroke="#D4D4D3" stroke-miterlimit="10" points="-219,-315.5 -223.3,-304.2 -212,-308.5 -207.7,-319.8 	"/>
</g>
<g>
	<path fill="none" stroke="#D4D4D3" stroke-miterlimit="10" d="M-822-249.6c0.3-1,0.7-1.9,1.1-2.8l-2.4-2.9c-0.6-0.8-0.6-2,0.1-2.7
		l1.7-1.7c0.7-0.7,1.9-0.8,2.7-0.1l2.9,2.4l0,0c0.9-0.5,1.8-0.9,2.8-1.1l0.4-3.7c0.1-1,1-1.8,2-1.8h2.4c1,0,1.9,0.8,2,1.8l0.4,3.7
		l0,0c1,0.3,1.9,0.7,2.8,1.1l2.9-2.4c0.8-0.6,2-0.6,2.7,0.1l1.7,1.7c0.7,0.7,0.8,1.9,0.1,2.7l-2.4,2.9l0,0c0.5,0.9,0.9,1.8,1.1,2.8
		l3.7,0.4c1,0.1,1.8,1,1.8,2v2.4c0,1-0.8,1.9-1.8,2l-3.7,0.4l0,0c-0.3,1-0.7,1.9-1.1,2.8l2.4,2.9c0.6,0.8,0.6,2-0.1,2.7l-1.7,1.7
		c-0.7,0.7-1.9,0.8-2.7,0.1l-2.9-2.4l0,0c-0.9,0.5-1.8,0.9-2.8,1.1l-0.4,3.7c-0.1,1-1,1.8-2,1.8h-2.4c-1,0-1.9-0.8-2-1.8l-0.4-3.7
		l0,0c-1-0.3-1.9-0.7-2.8-1.1l-2.9,2.4c-0.8,0.6-2,0.6-2.7-0.1l-1.7-1.7c-0.7-0.7-0.8-1.9-0.1-2.7l2.4-2.9l0,0
		c-0.5-0.9-0.9-1.8-1.1-2.8l-3.7-0.4c-1-0.1-1.8-1-1.8-2v-2.4c0-1,0.8-1.9,1.8-2L-822-249.6L-822-249.6z"/>
	<circle fill="none" stroke="#D4D4D3" stroke-miterlimit="10" cx="-809.5" cy="-246" r="6"/>
</g>
<g>
	<path fill="none" stroke="#D4D4D3" stroke-miterlimit="10" d="M-730.5-232h-26c-2.2,0-4-1.8-4-4v-20c0-2.2,1.8-4,4-4h26
		c2.2,0,4,1.8,4,4v20C-726.5-233.8-728.3-232-730.5-232z"/>
	<polyline fill="none" stroke="#D4D4D3" stroke-miterlimit="10" points="-760.5,-256 -743.5,-246 -726.5,-256 	"/>
</g>
<g>
	<circle fill="none" stroke="#D4D4D3" stroke-miterlimit="10" cx="-677.5" cy="-246" r="7"/>
	<circle fill="none" stroke="#D4D4D3" stroke-miterlimit="10" cx="-677.5" cy="-246" r="14"/>
	<line fill="none" stroke="#D4D4D3" stroke-miterlimit="10" x1="-677.5" y1="-267" x2="-677.5" y2="-260"/>
	<line fill="none" stroke="#D4D4D3" stroke-miterlimit="10" x1="-663.5" y1="-246" x2="-656.5" y2="-246"/>
	<line fill="none" stroke="#D4D4D3" stroke-miterlimit="10" x1="-677.5" y1="-225" x2="-677.5" y2="-232"/>
	<line fill="none" stroke="#D4D4D3" stroke-miterlimit="10" x1="-691.5" y1="-246" x2="-698.5" y2="-246"/>
</g>
<g>
	<path fill="none" stroke="#D4D4D3" stroke-miterlimit="10" d="M-595.5-248v14c0,2.2-1.8,4-4,4h-24c-2.2,0-4-1.8-4-4v-24
		c0-2.2,1.8-4,4-4h14"/>
	<path fill="none" stroke="#D4D4D3" stroke-miterlimit="10" d="M-605.8-247.5l-5.7,1.4l1.4-5.7l13.4-13.4c1.2-1.2,3.1-1.2,4.2,0
		c1.2,1.2,1.2,3.1,0,4.2L-605.8-247.5z"/>
	<line fill="none" stroke="#D4D4D3" stroke-miterlimit="10" x1="-598.1" y1="-263.7" x2="-593.8" y2="-259.5"/>
</g>
<g>
	<polygon fill="none" stroke="#D4D4D3" stroke-miterlimit="10" points="-539.5,-259 -551.5,-264 -563.5,-259 -563.5,-228 
		-551.5,-233 -539.5,-228 -527.5,-233 -527.5,-264 	"/>
	<line fill="none" stroke="#D4D4D3" stroke-miterlimit="10" x1="-551.5" y1="-263" x2="-551.5" y2="-233"/>
	<line fill="none" stroke="#D4D4D3" stroke-miterlimit="10" x1="-539.5" y1="-259" x2="-539.5" y2="-229"/>
</g>
<path fill="none" stroke="#D4D4D3" stroke-miterlimit="10" d="M-481.7-262.2l-13.4,10.9c-0.2,0.2-0.4,0.5-0.4,0.8v20.5
	c0,0.6,0.4,1,1,1h9c0.6,0,1-0.4,1-1v-13c0-0.6,0.4-1,1-1h8c0.6,0,1,0.4,1,1v13c0,0.6,0.4,1,1,1h9c0.6,0,1-0.4,1-1v-20.5
	c0-0.3-0.1-0.6-0.4-0.8l-13.4-10.9C-478.6-263.3-480.4-263.3-481.7-262.2z"/>
<path fill="none" stroke="#D4D4D3" stroke-miterlimit="10" d="M-421.5-251h-6c-0.6,0-1-0.4-1-1v-6c0-2.2,1.8-4,4-4h19
	c2.2,0,4,1.8,4,4v27.9c0,0.8-1,1.3-1.6,0.8l-7.8-6.2c-0.4-0.3-0.9-0.3-1.2,0l-7.8,6.2c-0.7,0.5-1.6,0.1-1.6-0.8V-259
	c0-1.7-1.3-3-3-3l0,0"/>
<g>
	<path fill="none" stroke="#D4D4D3" stroke-miterlimit="10" d="M-341.5-229h-12c-2.2,0-4-1.8-4-4v-26c0-2.2,1.8-4,4-4h12
		c2.2,0,4,1.8,4,4v26C-337.5-230.8-339.3-229-341.5-229z"/>
	<circle fill="none" stroke="#D4D4D3" stroke-miterlimit="10" cx="-347.5" cy="-233" r="1"/>
	<line fill="none" stroke="#D4D4D3" stroke-miterlimit="10" x1="-349.5" y1="-260" x2="-345.5" y2="-260"/>
</g>
<g>
	<path fill="none" stroke="#D4D4D3" stroke-miterlimit="10" d="M-272.5-229h-18c-2.2,0-4-1.8-4-4v-26c0-2.2,1.8-4,4-4h18
		c2.2,0,4,1.8,4,4v26C-268.5-230.8-270.3-229-272.5-229z"/>
	<circle fill="none" stroke="#D4D4D3" stroke-miterlimit="10" cx="-281.5" cy="-233" r="1"/>
	<line fill="none" stroke="#D4D4D3" stroke-miterlimit="10" x1="-283.5" y1="-260" x2="-279.5" y2="-260"/>
</g>
<g>
	<path fill="none" stroke="#D4D4D3" stroke-miterlimit="10" d="M-201.5-236h-28c-2.2,0-4-1.8-4-4v-18c0-2.2,1.8-4,4-4h28
		c2.2,0,4,1.8,4,4v18C-197.5-237.8-199.3-236-201.5-236z"/>
	<polygon fill="none" stroke="#D4D4D3" stroke-miterlimit="10" points="-211.5,-229 -219.5,-229 -218.5,-236 -212.5,-236 	"/>
	<line fill="none" stroke="#D4D4D3" stroke-miterlimit="10" x1="-222.5" y1="-229" x2="-208.5" y2="-229"/>
	<line fill="none" stroke="#D4D4D3" stroke-miterlimit="10" x1="-233.5" y1="-242" x2="-197.5" y2="-242"/>
</g>
<g>
	<circle fill="none" stroke="#D4D4D3" stroke-miterlimit="10" cx="-820.5" cy="-180" r="6"/>
	<circle fill="none" stroke="#D4D4D3" stroke-miterlimit="10" cx="-798.5" cy="-191" r="6"/>
	<circle fill="none" stroke="#D4D4D3" stroke-miterlimit="10" cx="-798.5" cy="-169" r="6"/>
	<line fill="none" stroke="#D4D4D3" stroke-miterlimit="10" x1="-814.5" y1="-177" x2="-804.5" y2="-172"/>
	<line fill="none" stroke="#D4D4D3" stroke-miterlimit="10" x1="-804.5" y1="-188" x2="-814.5" y2="-183"/>
</g>
<g>
	<line fill="none" stroke="#D4D4D3" stroke-miterlimit="10" x1="-759.5" y1="-195" x2="-727.5" y2="-195"/>
	<line fill="none" stroke="#D4D4D3" stroke-miterlimit="10" x1="-759.5" y1="-185" x2="-727.5" y2="-185"/>
	<line fill="none" stroke="#D4D4D3" stroke-miterlimit="10" x1="-759.5" y1="-175" x2="-727.5" y2="-175"/>
	<line fill="none" stroke="#D4D4D3" stroke-miterlimit="10" x1="-759.5" y1="-165" x2="-727.5" y2="-165"/>
</g>
<g>
	<line fill="none" stroke="#D4D4D3" stroke-miterlimit="10" x1="-693.5" y1="-195" x2="-661.5" y2="-195"/>
	<line fill="none" stroke="#D4D4D3" stroke-miterlimit="10" x1="-693.5" y1="-185" x2="-671.5" y2="-185"/>
	<line fill="none" stroke="#D4D4D3" stroke-miterlimit="10" x1="-693.5" y1="-175" x2="-661.5" y2="-175"/>
	<line fill="none" stroke="#D4D4D3" stroke-miterlimit="10" x1="-693.5" y1="-165" x2="-671.5" y2="-165"/>
</g>
<g>
	<line fill="none" stroke="#D4D4D3" stroke-miterlimit="10" x1="-595.5" y1="-195" x2="-627.5" y2="-195"/>
	<line fill="none" stroke="#D4D4D3" stroke-miterlimit="10" x1="-595.5" y1="-185" x2="-617.5" y2="-185"/>
	<line fill="none" stroke="#D4D4D3" stroke-miterlimit="10" x1="-595.5" y1="-175" x2="-627.5" y2="-175"/>
	<line fill="none" stroke="#D4D4D3" stroke-miterlimit="10" x1="-595.5" y1="-165" x2="-617.5" y2="-165"/>
</g>
<g>
	<line fill="none" stroke="#D4D4D3" stroke-miterlimit="10" x1="-561.5" y1="-195" x2="-529.5" y2="-195"/>
	<line fill="none" stroke="#D4D4D3" stroke-miterlimit="10" x1="-556.5" y1="-185" x2="-534.5" y2="-185"/>
	<line fill="none" stroke="#D4D4D3" stroke-miterlimit="10" x1="-561.5" y1="-175" x2="-529.5" y2="-175"/>
	<line fill="none" stroke="#D4D4D3" stroke-miterlimit="10" x1="-556.5" y1="-165" x2="-534.5" y2="-165"/>
</g>
<g>
	<path fill="none" stroke="#D4D4D3" stroke-miterlimit="10" d="M-483.6-168.8l-9.9,2.8l2.8-9.9l19.1-19.1c1.4-1.4,3.6-1.4,4.9,0
		l2.1,2.1c1.4,1.4,1.4,3.6,0,4.9L-483.6-168.8z"/>
	<line fill="none" stroke="#D4D4D3" stroke-miterlimit="10" x1="-467.3" y1="-185.1" x2="-474.4" y2="-192.1"/>
</g>
<g>
	<line fill="none" stroke="#D4D4D3" stroke-miterlimit="10" x1="-429.5" y1="-161" x2="-397.5" y2="-161"/>
	<g>
		<path fill="none" stroke="#D4D4D3" stroke-miterlimit="10" d="M-416.6-169.8l-9.9,2.8l2.8-9.9l19.1-19.1c1.4-1.4,3.6-1.4,4.9,0
			l2.1,2.1c1.4,1.4,1.4,3.6,0,4.9L-416.6-169.8z"/>
		<line fill="none" stroke="#D4D4D3" stroke-miterlimit="10" x1="-400.4" y1="-186.1" x2="-407.4" y2="-193.1"/>
	</g>
</g>
<g>
	<path fill="none" stroke="#D4D4D3" stroke-miterlimit="10" d="M-268.5,6v25c0,2.2-1.8,4-4,4h-18c-2.2,0-4-1.8-4-4V6"/>
	<line fill="none" stroke="#D4D4D3" stroke-miterlimit="10" x1="-299.5" y1="6" x2="-263.5" y2="6"/>
	<path fill="none" stroke="#D4D4D3" stroke-miterlimit="10" d="M-275.5,6h-12V3c0-1.1,0.9-2,2-2h8c1.1,0,2,0.9,2,2V6z"/>
	<line fill="none" stroke="#D4D4D3" stroke-miterlimit="10" x1="-281.5" y1="11" x2="-281.5" y2="30"/>
	<line fill="none" stroke="#D4D4D3" stroke-miterlimit="10" x1="-275.5" y1="11" x2="-275.5" y2="30"/>
	<line fill="none" stroke="#D4D4D3" stroke-miterlimit="10" x1="-287.5" y1="11" x2="-287.5" y2="30"/>
</g>
<g>
	<circle fill="none" stroke="#D4D4D3" stroke-miterlimit="10" cx="-281.5" cy="-180" r="17"/>
	<line fill="none" stroke="#D4D4D3" stroke-miterlimit="10" x1="-293.5" y1="-192" x2="-269.5" y2="-168"/>
</g>
<g>
	<path fill="none" stroke="#D4D4D3" stroke-miterlimit="10" d="M-197.5-170h-26c-1.1,0-2-0.9-2-2v-26"/>
	<path fill="none" stroke="#D4D4D3" stroke-miterlimit="10" d="M-233.5-190h26c1.1,0,2,0.9,2,2v26"/>
</g>
<path fill="none" stroke="#D4D4D3" stroke-miterlimit="10" d="M-808.6-130.2l5.1,10.2l10.2,5.1c0.7,0.4,0.7,1.4,0,1.8l-10.2,5.1
	l-5.1,10.2c-0.4,0.7-1.4,0.7-1.8,0l-5.1-10.2l-10.2-5.1c-0.7-0.4-0.7-1.4,0-1.8l10.2-5.1l5.1-10.2C-810-131-809-131-808.6-130.2z"/>
<g>
	<path fill="none" stroke="#D4D4D3" stroke-miterlimit="10" d="M-600.3-97.8c1,1.1,2.4,1.8,3.9,1.8c1.1,0,2-0.3,2.9-0.8
		c-1.6-0.9-2.8-2.6-3.1-4.5c1.3-1.9,2-4.2,2-6.7c0-6.6-5.4-12-12-12c-6.6,0-12,5.4-12,12s5.4,12,12,12
		C-604.2-96-602.1-96.6-600.3-97.8z"/>
	<path fill="none" stroke="#D4D4D3" stroke-miterlimit="10" d="M-621.5-109.4c-1-0.3-1.9-0.7-2.8-1.2c-0.9,1-2.2,1.6-3.6,1.6
		c-1,0-1.9-0.3-2.6-0.8c1.5-0.9,2.6-2.3,2.9-4.1c-1.2-1.8-1.9-3.9-1.9-6.1c0-6.1,4.9-11,11-11c5.1,0,9.3,3.4,10.6,8.1"/>
</g>
<path fill="none" stroke="#D4D4D3" stroke-miterlimit="10" d="M-545.5-98c5.4-3.3,18-9.9,18-21c0-5.5-4.5-10-10-10
	c-3.3,0-6.2,1.6-8,4c-1.8-2.4-4.7-4-8-4c-5.5,0-10,4.5-10,10C-563.5-107.9-550.9-101.3-545.5-98z"/>
<g>
	<path fill="none" stroke="#D4D4D3" stroke-miterlimit="10" d="M-477.5-130h-14c-2.2,0-4,1.8-4,4v24c0,2.2,1.8,4,4,4h24
		c2.2,0,4-1.8,4-4v-14"/>
	<line fill="none" stroke="#D4D4D3" stroke-miterlimit="10" x1="-479.5" y1="-114" x2="-462.5" y2="-131"/>
	<path fill="none" stroke="#D4D4D3" stroke-miterlimit="10" d="M-461.5-120v-11c0-0.6-0.4-1-1-1h-11"/>
</g>
<g>
	<path fill="none" stroke="#D4D4D3" stroke-miterlimit="10" d="M-411.5-130h-14c-2.2,0-4,1.8-4,4v24c0,2.2,1.8,4,4,4h24
		c2.2,0,4-1.8,4-4v-14"/>
	<line fill="none" stroke="#D4D4D3" stroke-miterlimit="10" x1="-398.5" y1="-129" x2="-415.5" y2="-112"/>
	<path fill="none" stroke="#D4D4D3" stroke-miterlimit="10" d="M-416.5-123v11c0,0.6,0.4,1,1,1h11"/>
</g>
<g>
	<path fill="none" stroke="#D4D4D3" stroke-miterlimit="10" d="M-202.5-33h-26c-2.2,0-4-1.8-4-4v-23c0-2.2,1.8-4,4-4h26
		c2.2,0,4,1.8,4,4v23C-198.5-34.8-200.3-33-202.5-33z"/>
	<line fill="none" stroke="#D4D4D3" stroke-miterlimit="10" x1="-231.5" y1="-56" x2="-197.5" y2="-56"/>
	<line fill="none" stroke="#D4D4D3" stroke-miterlimit="10" x1="-224.5" y1="-68" x2="-224.5" y2="-61"/>
	<line fill="none" stroke="#D4D4D3" stroke-miterlimit="10" x1="-206.5" y1="-68" x2="-206.5" y2="-61"/>
</g>
<g>
	<circle fill="none" stroke="#D4D4D3" stroke-miterlimit="10" cx="-283.5" cy="-116" r="14"/>
	<line fill="none" stroke="#D4D4D3" stroke-miterlimit="10" x1="-265.5" y1="-98" x2="-273.5" y2="-106"/>
</g>
<path fill="none" stroke="#D4D4D3" stroke-miterlimit="10" d="M-213.8-129.7l3.9,8.8l9.6,1c1.6,0.2,2.3,2.2,1.1,3.3l-7.2,6.5l2,9.5
	c0.3,1.6-1.4,2.9-2.8,2l-8.4-4.8l-8.4,4.8c-1.4,0.8-3.1-0.4-2.8-2l2-9.5l-7.2-6.5c-1.2-1.1-0.6-3.1,1.1-3.3l9.6-1l3.9-8.8
	C-216.6-131.2-214.4-131.2-213.8-129.7z"/>
<g>
	<path fill="none" stroke="#D4D4D3" stroke-miterlimit="10" d="M-796.5-32h-26c-2.2,0-4-1.8-4-4v-23c0-2.2,1.8-4,4-4h26
		c2.2,0,4,1.8,4,4v23C-792.5-33.8-794.3-32-796.5-32z"/>
	<line fill="none" stroke="#D4D4D3" stroke-miterlimit="10" x1="-826.5" y1="-55" x2="-792.5" y2="-55"/>
	<line fill="none" stroke="#D4D4D3" stroke-miterlimit="10" x1="-818.5" y1="-67" x2="-818.5" y2="-60"/>
	<line fill="none" stroke="#D4D4D3" stroke-miterlimit="10" x1="-800.5" y1="-67" x2="-800.5" y2="-60"/>
	<polyline fill="none" stroke="#D4D4D3" stroke-miterlimit="10" points="-815.5,-44 -810.5,-39 -800.5,-49 	"/>
</g>
<g>
	<line fill="none" stroke="#D4D4D3" stroke-miterlimit="10" x1="-749.5" y1="-50" x2="-737.5" y2="-38"/>
	<line fill="none" stroke="#D4D4D3" stroke-miterlimit="10" x1="-737.5" y1="-50" x2="-749.5" y2="-38"/>
	<path fill="none" stroke="#D4D4D3" stroke-miterlimit="10" d="M-730.5-32h-26c-2.2,0-4-1.8-4-4v-23c0-2.2,1.8-4,4-4h26
		c2.2,0,4,1.8,4,4v23C-726.5-33.8-728.3-32-730.5-32z"/>
	<line fill="none" stroke="#D4D4D3" stroke-miterlimit="10" x1="-760.5" y1="-55" x2="-726.5" y2="-55"/>
	<line fill="none" stroke="#D4D4D3" stroke-miterlimit="10" x1="-752.5" y1="-67" x2="-752.5" y2="-60"/>
	<line fill="none" stroke="#D4D4D3" stroke-miterlimit="10" x1="-734.5" y1="-67" x2="-734.5" y2="-60"/>
</g>
<g>
	<circle fill="none" stroke="#D4D4D3" stroke-miterlimit="10" cx="-677.5" cy="-45" r="14"/>
	<path fill="none" stroke="#D4D4D3" stroke-miterlimit="10" d="M-679.5-66h4c0.6,0,1,0.4,1,1v2c0,0.6-0.4,1-1,1h-4c-0.6,0-1-0.4-1-1
		v-2C-680.5-65.6-680.1-66-679.5-66z"/>
	<line fill="none" stroke="#D4D4D3" stroke-miterlimit="10" x1="-677.5" y1="-62" x2="-677.5" y2="-59"/>
	<line fill="none" stroke="#D4D4D3" stroke-miterlimit="10" x1="-666.2" y1="-60.6" x2="-661.9" y2="-56.3"/>
	<line fill="none" stroke="#D4D4D3" stroke-miterlimit="10" x1="-664.1" y1="-58.4" x2="-667.6" y2="-54.9"/>
	<line fill="none" stroke="#D4D4D3" stroke-miterlimit="10" x1="-677.5" y1="-45" x2="-677.5" y2="-54"/>
	<circle fill="none" stroke="#D4D4D3" stroke-miterlimit="10" cx="-677.5" cy="-45" r="2"/>
</g>
<g>
	<circle fill="none" stroke="#D4D4D3" stroke-miterlimit="10" cx="-611.5" cy="-48" r="15"/>
	<polyline fill="none" stroke="#D4D4D3" stroke-miterlimit="10" points="-611.5,-57 -611.5,-48 -605.5,-44 	"/>
	<line fill="none" stroke="#D4D4D3" stroke-miterlimit="10" x1="-602.5" y1="-35" x2="-598.5" y2="-30"/>
	<line fill="none" stroke="#D4D4D3" stroke-miterlimit="10" x1="-620.5" y1="-35" x2="-624.5" y2="-30"/>
	<path fill="none" stroke="#D4D4D3" stroke-miterlimit="10" d="M-603-63.6l0.9-0.6c1.9-1.3,4.5-1,6.2,0.6l0,0
		c1.6,1.6,1.9,4.2,0.6,6.2l-0.6,0.9"/>
	<path fill="none" stroke="#D4D4D3" stroke-miterlimit="10" d="M-620-63.6l-0.9-0.6c-1.9-1.3-4.5-1-6.2,0.6l0,0
		c-1.6,1.6-1.9,4.2-0.6,6.2l0.6,0.9"/>
</g>
<g>
	<path fill="none" stroke="#D4D4D3" stroke-miterlimit="10" d="M-463.5-41h-32c-0.6,0-1-0.4-1-1v-10c0-0.6,0.4-1,1-1h32
		c0.6,0,1,0.4,1,1v10C-462.5-41.4-462.9-41-463.5-41z"/>
	<line fill="none" stroke="#D4D4D3" stroke-miterlimit="10" x1="-492.5" y1="-53" x2="-492.5" y2="-47"/>
	<line fill="none" stroke="#D4D4D3" stroke-miterlimit="10" x1="-479.5" y1="-53" x2="-479.5" y2="-47"/>
	<line fill="none" stroke="#D4D4D3" stroke-miterlimit="10" x1="-466.5" y1="-53" x2="-466.5" y2="-47"/>
	<line fill="none" stroke="#D4D4D3" stroke-miterlimit="10" x1="-486.5" y1="-52" x2="-486.5" y2="-49"/>
	<line fill="none" stroke="#D4D4D3" stroke-miterlimit="10" x1="-473.5" y1="-52" x2="-473.5" y2="-49"/>
</g>
<g>
	<path fill="none" stroke="#D4D4D3" stroke-miterlimit="10" d="M-400.5-60v25c0,2.2-1.8,4-4,4h-18c-2.2,0-4-1.8-4-4v-25"/>
	<line fill="none" stroke="#D4D4D3" stroke-miterlimit="10" x1="-431.5" y1="-60" x2="-395.5" y2="-60"/>
	<path fill="none" stroke="#D4D4D3" stroke-miterlimit="10" d="M-407.5-60h-12v-3c0-1.1,0.9-2,2-2h8c1.1,0,2,0.9,2,2V-60z"/>
</g>
<g>
	<path fill="none" stroke="#D4D4D3" stroke-miterlimit="10" d="M-334.5-32h-26c-2.2,0-4-1.8-4-4v-24c0-2.2,1.8-4,4-4h26
		c2.2,0,4,1.8,4,4v24C-330.5-33.8-332.3-32-334.5-32z"/>
	<line fill="none" stroke="#D4D4D3" stroke-miterlimit="10" x1="-363.5" y1="-56" x2="-329.5" y2="-56"/>
	<line fill="none" stroke="#D4D4D3" stroke-miterlimit="10" x1="-356.5" y1="-68" x2="-356.5" y2="-61"/>
	<line fill="none" stroke="#D4D4D3" stroke-miterlimit="10" x1="-338.5" y1="-68" x2="-338.5" y2="-61"/>
	<path fill="none" stroke="#D4D4D3" stroke-miterlimit="10" d="M-355.5-46h-4c-0.6,0-1-0.4-1-1v-4c0-0.6,0.4-1,1-1h4
		c0.6,0,1,0.4,1,1v4C-354.5-46.4-354.9-46-355.5-46z"/>
	<path fill="none" stroke="#D4D4D3" stroke-miterlimit="10" d="M-345.5-46h-4c-0.6,0-1-0.4-1-1v-4c0-0.6,0.4-1,1-1h4
		c0.6,0,1,0.4,1,1v4C-344.5-46.4-344.9-46-345.5-46z"/>
	<path fill="none" stroke="#D4D4D3" stroke-miterlimit="10" d="M-335.5-46h-4c-0.6,0-1-0.4-1-1v-4c0-0.6,0.4-1,1-1h4
		c0.6,0,1,0.4,1,1v4C-334.5-46.4-334.9-46-335.5-46z"/>
	<path fill="none" stroke="#D4D4D3" stroke-miterlimit="10" d="M-355.5-36h-4c-0.6,0-1-0.4-1-1v-4c0-0.6,0.4-1,1-1h4
		c0.6,0,1,0.4,1,1v4C-354.5-36.4-354.9-36-355.5-36z"/>
	<path fill="none" stroke="#D4D4D3" stroke-miterlimit="10" d="M-345.5-36h-4c-0.6,0-1-0.4-1-1v-4c0-0.6,0.4-1,1-1h4
		c0.6,0,1,0.4,1,1v4C-344.5-36.4-344.9-36-345.5-36z"/>
	<path fill="none" stroke="#D4D4D3" stroke-miterlimit="10" d="M-335.5-36h-4c-0.6,0-1-0.4-1-1v-4c0-0.6,0.4-1,1-1h4
		c0.6,0,1,0.4,1,1v4C-334.5-36.4-334.9-36-335.5-36z"/>
</g>
<g>
	<path fill="none" stroke="#D4D4D3" stroke-miterlimit="10" d="M-281.5-56.5l4.9-4.9c2-2,5.1-2,7.1,0l1.4,1.4c2,2,2,5.1,0,7.1
		l-7.8,7.8c-2,2-5.1,2-7.1,0l-1.4-1.4"/>
	<path fill="none" stroke="#D4D4D3" stroke-miterlimit="10" d="M-281.5-39.5l-4.9,4.9c-2,2-5.1,2-7.1,0l-1.4-1.4c-2-2-2-5.1,0-7.1
		l7.8-7.8c2-2,5.1-2,7.1,0l1.4,1.4"/>
</g>
<g>
	<circle fill="none" stroke="#D4D4D3" stroke-miterlimit="10" cx="-743.5" cy="18" r="17"/>
	<line fill="none" stroke="#D4D4D3" stroke-miterlimit="10" x1="-749.9" y1="24.4" x2="-737.1" y2="11.6"/>
	<line fill="none" stroke="#D4D4D3" stroke-miterlimit="10" x1="-737.1" y1="24.4" x2="-749.9" y2="11.6"/>
</g>
<g>
	<circle fill="none" stroke="#D4D4D3" stroke-miterlimit="10" cx="-809.5" cy="18" r="17"/>
	<polyline fill="none" stroke="#D4D4D3" stroke-miterlimit="10" points="-816.5,18 -811.5,23 -801.5,13 	"/>
</g>
<g>
	<circle fill="none" stroke="#D4D4D3" stroke-miterlimit="10" cx="-545.5" cy="18" r="17"/>
	<line fill="none" stroke="#D4D4D3" stroke-miterlimit="10" x1="-557.5" y1="30" x2="-533.5" y2="6"/>
</g>
<g>
	<circle fill="none" stroke="#D4D4D3" stroke-miterlimit="10" cx="-611.5" cy="18" r="17"/>
	<line fill="none" stroke="#D4D4D3" stroke-miterlimit="10" x1="-620.5" y1="18" x2="-602.5" y2="18"/>
</g>
<g>
	<circle fill="none" stroke="#D4D4D3" stroke-miterlimit="10" cx="-677.5" cy="18" r="17"/>
	<line fill="none" stroke="#D4D4D3" stroke-miterlimit="10" x1="-677.5" y1="9" x2="-677.5" y2="27"/>
	<line fill="none" stroke="#D4D4D3" stroke-miterlimit="10" x1="-668.5" y1="18" x2="-686.5" y2="18"/>
</g>
<g>
	<path fill="none" stroke="#D4D4D3" stroke-miterlimit="10" d="M-346.5-129h-14c-2.2,0-4,1.8-4,4v24c0,2.2,1.8,4,4,4h24
		c2.2,0,4-1.8,4-4v-14"/>
	<circle fill="none" stroke="#D4D4D3" stroke-miterlimit="10" cx="-336.5" cy="-125" r="6"/>
</g>
<polygon fill="none" stroke="#D4D4D3" stroke-miterlimit="10" points="-476.5,16 -474.5,1 -492.5,20 -482.5,20 -484.5,35 -466.5,16 
	"/>
<path fill="none" stroke="#D4D4D3" stroke-miterlimit="10" d="M-748.2-115c1.3-1.3,2-3,1.7-4.8c-0.4-3,0.6-6,2.9-8.3
	c3-3,7.5-3.7,11.2-2l-6,6c-1.3,1.3-1.5,3.5-0.3,5c1.4,1.5,3.7,1.5,5.1,0.1l6.1-6.1c1.7,3.7,1,8.2-2,11.2c-2.3,2.3-5.4,3.2-8.3,2.9
	c-1.8-0.2-3.5,0.5-4.8,1.7l-11.2,11.2c-1.6,1.6-4.1,1.6-5.7,0s-1.6-4.1,0-5.7L-748.2-115z"/>
<g>
	<path fill="none" stroke="#D4D4D3" stroke-miterlimit="10" d="M-545.5-65c7.2,0,13,5.8,13,13c0,1.9-0.4,3.7-1.1,5.3
		c-0.6,1.3-1.4,2.6-2.4,3.6l-9.5,9.5l-9.5-9.5c-1-1-1.8-2.3-2.4-3.6c-0.7-1.6-1.1-3.4-1.1-5.3C-558.5-59.2-552.7-65-545.5-65z"/>
	<polyline fill="none" stroke="#D4D4D3" stroke-miterlimit="10" points="-559.5,-40 -562.5,-30 -528.5,-30 -531.5,-40 	"/>
	<circle fill="none" stroke="#D4D4D3" stroke-miterlimit="10" cx="-545.5" cy="-52" r="5"/>
</g>
<g>
	<g>
		<path fill="none" stroke="#D4D4D3" stroke-miterlimit="10" d="M-342.5,35h-16c-2.2,0-4-1.8-4-4V12c0-2.2,1.8-4,4-4h9.6
			c0.3,0,0.5,0.1,0.7,0.3l9.4,9.4c0.2,0.2,0.3,0.4,0.3,0.7V31C-338.5,33.2-340.3,35-342.5,35z"/>
		<path fill="none" stroke="#D4D4D3" stroke-miterlimit="10" d="M-348.5,8.5V14c0,2.2,1.8,4,4,4h5.5"/>
	</g>
	<g>
		<path fill="none" stroke="#D4D4D3" stroke-miterlimit="10" d="M-354.5,8V5c0-2.2,1.8-4,4-4h9.6c0.3,0,0.5,0.1,0.7,0.3l9.4,9.4
			c0.2,0.2,0.3,0.4,0.3,0.7V24c0,2.2-1.8,4-4,4h-4"/>
		<path fill="none" stroke="#D4D4D3" stroke-miterlimit="10" d="M-340.5,1.5V7c0,2.2,1.8,4,4,4h5.5"/>
	</g>
</g>
<g>
	<path fill="none" stroke="#D4D4D3" stroke-miterlimit="10" d="M-402.5,35h-22c-2.2,0-4-1.8-4-4V4c0-2.2,1.8-4,4-4h12.2
		c0.5,0,1,0.2,1.4,0.5l11.8,10.9c0.4,0.4,0.6,0.9,0.6,1.5V31C-398.5,33.2-400.3,35-402.5,35z"/>
	<path fill="none" stroke="#D4D4D3" stroke-miterlimit="10" d="M-411.5,0v8c0,2.2,1.8,4,4,4h8.5"/>
</g>
<g>
	<line fill="none" stroke="#D4D4D3" stroke-miterlimit="10" x1="-353.5" y1="-190" x2="-331.5" y2="-190"/>
	<line fill="none" stroke="#D4D4D3" stroke-miterlimit="10" x1="-363.5" y1="-190" x2="-359.5" y2="-190"/>
	<line fill="none" stroke="#D4D4D3" stroke-miterlimit="10" x1="-335.5" y1="-180" x2="-331.5" y2="-180"/>
	<line fill="none" stroke="#D4D4D3" stroke-miterlimit="10" x1="-363.5" y1="-180" x2="-341.5" y2="-180"/>
	<line fill="none" stroke="#D4D4D3" stroke-miterlimit="10" x1="-347.5" y1="-170" x2="-331.5" y2="-170"/>
	<line fill="none" stroke="#D4D4D3" stroke-miterlimit="10" x1="-363.5" y1="-170" x2="-353.5" y2="-170"/>
	<circle fill="none" stroke="#D4D4D3" stroke-miterlimit="10" cx="-356.5" cy="-190" r="3"/>
	<circle fill="none" stroke="#D4D4D3" stroke-miterlimit="10" cx="-338.5" cy="-180" r="3"/>
	<circle fill="none" stroke="#D4D4D3" stroke-miterlimit="10" cx="-350.5" cy="-170" r="3"/>
</g>
<g>
	<ellipse fill="none" stroke="#D4D4D3" stroke-miterlimit="10" cx="-809.6" cy="85" rx="6" ry="18"/>
	
		<ellipse transform="matrix(0.5 -0.866 0.866 0.5 -478.4264 -658.655)" fill="none" stroke="#D4D4D3" stroke-miterlimit="10" cx="-809.6" cy="85" rx="6" ry="18"/>
	
		<ellipse transform="matrix(0.5 0.866 -0.866 0.5 -331.2018 743.6556)" fill="none" stroke="#D4D4D3" stroke-miterlimit="10" cx="-809.6" cy="85" rx="6" ry="18"/>
</g>
<g>
	<rect x="-755.5" y="74" fill="none" stroke="#D4D4D3" stroke-miterlimit="10" width="18" height="8"/>
	<line fill="none" stroke="#D4D4D3" stroke-miterlimit="10" x1="-756.5" y1="87" x2="-736.5" y2="87"/>
	<line fill="none" stroke="#D4D4D3" stroke-miterlimit="10" x1="-756.5" y1="92" x2="-736.5" y2="92"/>
	<line fill="none" stroke="#D4D4D3" stroke-miterlimit="10" x1="-756.5" y1="97" x2="-746.5" y2="97"/>
	<path fill="none" stroke="#D4D4D3" stroke-miterlimit="10" d="M-731.5,77h4c1.7,0,3,1.3,3,3v18.5c0,1.9-1.6,3.5-3.5,3.5
		s-3.5-1.6-3.5-3.5V71c0-1.7-1.3-3-3-3h-24c-1.7,0-3,1.3-3,3v28c0,1.7,1.3,3,3,3h30"/>
</g>
<g>
	<path fill="none" stroke="#D4D4D3" stroke-miterlimit="10" d="M-688.3,98.1c0.6-3.6,3-6.6,6.2-8.1"/>
	<path fill="none" stroke="#D4D4D3" stroke-miterlimit="10" d="M-672.9,90c1.2,0.5,2.2,1.3,3.2,2.2c1.6,1.6,2.7,3.6,3,5.9"/>
	<circle fill="none" stroke="#D4D4D3" stroke-miterlimit="10" cx="-677.5" cy="85" r="17"/>
	<ellipse fill="none" stroke="#D4D4D3" stroke-miterlimit="10" cx="-677.5" cy="84" rx="7" ry="8"/>
</g>
<g>
	<path fill="none" stroke="#D4D4D3" stroke-miterlimit="10" d="M-601.5,99h2c2.2,0,4-1.8,4-4V73c0-2.2-1.8-4-4-4h-24
		c-2.2,0-4,1.8-4,4v22c0,2.2,1.8,4,4,4h2"/>
	<polygon fill="none" stroke="#D4D4D3" stroke-miterlimit="10" points="-618.5,102 -611.5,92 -604.5,102 	"/>
</g>
<g>
	<path fill="none" stroke="#D4D4D3" stroke-miterlimit="10" d="M-559,69.5l15.6,6.2c1.1,0.5,1.9,1.6,1.9,2.8v21.8c0,2.1-2,3.5-4,2.8
		l-13-4.4c-1.2-0.4-2-1.6-2-2.8V72c0-1.7,1.3-3,3-3h20c1.7,0,3,1.3,3,3v23c0,1.7-1.3,3-3,3h-4"/>
	<circle fill="none" stroke="#D4D4D3" stroke-miterlimit="10" cx="-546" cy="88.5" r="1.8"/>
	<polyline fill="none" stroke="#D4D4D3" stroke-miterlimit="10" points="-529,79.5 -524.5,84 -529,88.5 	"/>
	<line fill="none" stroke="#D4D4D3" stroke-miterlimit="10" x1="-525" y1="84" x2="-534" y2="84"/>
</g>
<g>
	<line fill="none" stroke="#D4D4D3" stroke-miterlimit="10" x1="-215.5" y1="8" x2="-215.5" y2="33.5"/>
	<path fill="none" stroke="#D4D4D3" stroke-miterlimit="10" d="M-215.5,8c0-2.2-1.8-4-4-4h-9c-2.2,0-4,1.8-4,4v20c0,2.2,1.8,4,4,4h9
		c2.2,0,4,1.8,4,4v1"/>
	<path fill="none" stroke="#D4D4D3" stroke-miterlimit="10" d="M-215.5,8c0-2.2,1.8-4,4-4h9c2.2,0,4,1.8,4,4v20c0,2.2-1.8,4-4,4h-9
		c-2.2,0-4,1.8-4,4v1"/>
</g>
<g>
	<path fill="none" stroke="#D4D4D3" stroke-miterlimit="10" d="M-476.5,97h-16c-2.2,0-4-1.8-4-4V77c0-2.2,1.8-4,4-4h16
		c2.2,0,4,1.8,4,4v16C-472.5,95.2-474.3,97-476.5,97z"/>
	<path fill="none" stroke="#D4D4D3" stroke-miterlimit="10" d="M-472.5,88l8.4,5.9c0.7,0.5,1.6,0,1.6-0.8V76.9
		c0-0.8-0.9-1.3-1.6-0.8l-8.4,5.9V88z"/>
</g>
<g>
	<ellipse fill="none" stroke="#D4D4D3" stroke-miterlimit="10" cx="-413.5" cy="71" rx="13" ry="3"/>
	<path fill="none" stroke="#D4D4D3" stroke-miterlimit="10" d="M-426.5,71c0,0-0.5,5.8,2.5,11c3,5.2,7.5,7,7.5,7v13l6-4v-9
		c0,0,4.5-1.8,7.5-7c3-5.2,2.5-11,2.5-11"/>
</g>
<polygon fill="none" stroke="#D4D4D3" stroke-miterlimit="10" points="-358.5,67 -358.5,94.5 -351.2,88.9 -344,102.1 -337,98.2 
	-344.1,85.1 -335.6,81.9 "/>
<g>
	<circle fill="none" stroke="#D4D4D3" stroke-miterlimit="10" cx="-281.5" cy="85" r="7"/>
	<path fill="none" stroke="#D4D4D3" stroke-miterlimit="10" d="M-295.5,74.6l12-6.9c1.2-0.7,2.8-0.7,4,0l12,6.9c1.2,0.7,2,2,2,3.5
		v13.9c0,1.4-0.8,2.7-2,3.5l-12,6.9c-1.2,0.7-2.8,0.7-4,0l-12-6.9c-1.2-0.7-2-2-2-3.5V78.1C-297.5,76.6-296.7,75.3-295.5,74.6z"/>
</g>
<g>
	<g>
		<path fill="none" stroke="#D4D4D3" stroke-miterlimit="10" d="M-204.5,68h-22c-2.2,0-4,1.8-4,4v26c0,2.2,1.8,4,4,4h13.2
			c0.5,0,1-0.2,1.4-0.5l10.8-9.9c0.4-0.4,0.6-0.9,0.6-1.5V72C-200.5,69.8-202.3,68-204.5,68z"/>
		<path fill="none" stroke="#D4D4D3" stroke-miterlimit="10" d="M-212.5,102v-7c0-2.2,1.8-4,4-4h7.5"/>
	</g>
	<line fill="none" stroke="#D4D4D3" stroke-miterlimit="10" x1="-225.5" y1="75" x2="-209.5" y2="75"/>
	<line fill="none" stroke="#D4D4D3" stroke-miterlimit="10" x1="-225.5" y1="96" x2="-217.5" y2="96"/>
	<line fill="none" stroke="#D4D4D3" stroke-miterlimit="10" x1="-225.5" y1="89" x2="-213.5" y2="89"/>
	<line fill="none" stroke="#D4D4D3" stroke-miterlimit="10" x1="-225.5" y1="82" x2="-205.5" y2="82"/>
</g>
<g>
	<path fill="none" stroke="#D4D4D3" stroke-miterlimit="10" d="M-796.5,166h-26c-1.7,0-3-1.3-3-3v-24c0-1.7,1.3-3,3-3h26
		c1.7,0,3,1.3,3,3v24C-793.5,164.7-794.8,166-796.5,166z"/>
	<line fill="none" stroke="#D4D4D3" stroke-miterlimit="10" x1="-818" y1="151" x2="-801" y2="151"/>
	<line fill="none" stroke="#D4D4D3" stroke-miterlimit="10" x1="-818.5" y1="166" x2="-818.5" y2="136"/>
	<line fill="none" stroke="#D4D4D3" stroke-miterlimit="10" x1="-800.5" y1="166.5" x2="-800.5" y2="136.5"/>
	<rect x="-825.5" y="148" fill="none" stroke="#D4D4D3" stroke-miterlimit="10" width="7" height="6"/>
	<rect x="-825.5" y="154" fill="none" stroke="#D4D4D3" stroke-miterlimit="10" width="7" height="6"/>
	<rect x="-825.5" y="142" fill="none" stroke="#D4D4D3" stroke-miterlimit="10" width="7" height="6"/>
	<rect x="-800.5" y="148" fill="none" stroke="#D4D4D3" stroke-miterlimit="10" width="7" height="6"/>
	<rect x="-800.5" y="154" fill="none" stroke="#D4D4D3" stroke-miterlimit="10" width="7" height="6"/>
	<rect x="-800.5" y="142" fill="none" stroke="#D4D4D3" stroke-miterlimit="10" width="7" height="6"/>
</g>
<g>
	<path fill="none" stroke="#D4D4D3" stroke-miterlimit="10" d="M-743.5,139c-9.4,0-17,9.3-17,11s7.6,11,17,11c9.4,0,17-9.3,17-11
		S-734.1,139-743.5,139z"/>
	<circle fill="none" stroke="#D4D4D3" stroke-miterlimit="10" cx="-743.5" cy="150" r="6"/>
</g>
<path fill="none" stroke="#D4D4D3" stroke-miterlimit="10" d="M-665.5,166h-24c-2.2,0-4-1.8-4-4v-22c0-2.2,1.8-4,4-4h7.3
	c1.1,0,2,0.6,2.6,1.5l1.3,2.1c0.5,0.9,1.5,1.5,2.6,1.5h10.3c2.2,0,4,1.8,4,4l0,17C-661.5,164.2-663.3,166-665.5,166z"/>
<g>
	<path fill="none" stroke="#D4D4D3" stroke-miterlimit="10" d="M-628.3,162l15-26c0.8-1.3,2.7-1.3,3.5,0l15,26c0.8,1.3-0.2,3-1.7,3
		h-30C-628.1,165-629,163.3-628.3,162z"/>
	<line fill="none" stroke="#D4D4D3" stroke-miterlimit="10" x1="-611.5" y1="144" x2="-611.5" y2="157"/>
	<circle fill="none" stroke="#D4D4D3" stroke-miterlimit="10" cx="-611.5" cy="160" r="1.5"/>
</g>
<g>
	<path fill="none" stroke="#E8AA22" stroke-width="2" stroke-miterlimit="10" d="M10.2,75.4l38-65.9c2-3.4,6.8-3.4,8.8,0l38,65.9
		c2,3.4-0.5,7.6-4.4,7.6H14.6C10.7,83,8.2,78.8,10.2,75.4z"/>
	<line fill="none" stroke="#E8AA22" stroke-width="2" stroke-miterlimit="10" x1="52.6" y1="29.8" x2="52.6" y2="62.7"/>
	<circle fill="none" stroke="#E8AA22" stroke-width="2" stroke-miterlimit="10" cx="52.6" cy="70.3" r="3.8"/>
</g>
<g>
	<path fill="none" stroke="#D4D4D3" stroke-miterlimit="10" d="M-535.5,168h-20c-2.2,0-4-1.8-4-4v-13c0-2.2,1.8-4,4-4h20
		c2.2,0,4,1.8,4,4v13C-531.5,166.2-533.3,168-535.5,168z"/>
	<path fill="none" stroke="#D4D4D3" stroke-miterlimit="10" d="M-536.5,147h-18v-7c0-5,4-9,9-9l0,0c5,0,9,4,9,9V147z"/>
</g>
<g>
	<path fill="none" stroke="#D4D4D3" stroke-miterlimit="10" d="M-469.5,168h-20c-2.2,0-4-1.8-4-4v-13c0-2.2,1.8-4,4-4h20
		c2.2,0,4,1.8,4,4v13C-465.5,166.2-467.3,168-469.5,168z"/>
	<path fill="none" stroke="#D4D4D3" stroke-miterlimit="10" d="M-488.5,147v-7c0-5,4-9,9-9l0,0c5,0,9,4,9,9v1"/>
</g>
<path fill="none" stroke="#D4D4D3" stroke-miterlimit="10" d="M-424.5,146.1c0.2-5.9,5.1-10.6,11-10.6c5.3,0,9.7,3.7,10.8,8.7
	c4.7,0.8,8.2,4.9,8.2,9.8c0,5.5-4.5,10-10,10h-19c-5,0-9-4-9-9C-432.5,150.4-429,146.6-424.5,146.1z"/>
<g>
	<circle fill="none" stroke="#D4D4D3" stroke-miterlimit="10" cx="-347.5" cy="151" r="17"/>
	<ellipse fill="none" stroke="#D4D4D3" stroke-miterlimit="10" cx="-347.5" cy="151" rx="9" ry="17"/>
	<path fill="none" stroke="#D4D4D3" stroke-miterlimit="10" d="M-335.5,138.9c-1.9,3-6.9,5.1-12,5.1s-10.1-2.1-12-5.1"/>
	<path fill="none" stroke="#D4D4D3" stroke-miterlimit="10" d="M-359.5,163.1c1.9-3,6.9-5.1,12-5.1s10.1,2.1,12,5.1"/>
	<line fill="none" stroke="#D4D4D3" stroke-miterlimit="10" x1="-364.5" y1="151" x2="-330.5" y2="151"/>
	<line fill="none" stroke="#D4D4D3" stroke-miterlimit="10" x1="-347.5" y1="134" x2="-347.5" y2="168"/>
</g>
<g>
	<path fill="none" stroke="#D4D4D3" stroke-miterlimit="10" d="M-291.5,148c-3.9,0-7-3.1-7-7s3.1-7,7-7h20c3.9,0,7,3.1,7,7
		s-3.1,7-7,7H-291.5z"/>
	<path fill="none" stroke="#D4D4D3" stroke-miterlimit="10" d="M-291.5,134c3.9,0,7,3.1,7,7s-3.1,7-7,7"/>
	<path fill="none" stroke="#D4D4D3" stroke-miterlimit="10" d="M-271.5,154c3.9,0,7,3.1,7,7s-3.1,7-7,7h-20c-3.9,0-7-3.1-7-7
		s3.1-7,7-7H-271.5z"/>
	<path fill="none" stroke="#D4D4D3" stroke-miterlimit="10" d="M-271.5,168c-3.9,0-7-3.1-7-7s3.1-7,7-7"/>
</g>
<g>
	<line fill="none" stroke="#D4D4D3" stroke-miterlimit="10" x1="-229.4" y1="141.3" x2="-222.1" y2="148.6"/>
	<line fill="none" stroke="#D4D4D3" stroke-miterlimit="10" x1="-208.9" y1="153.4" x2="-201.6" y2="160.7"/>
	<line fill="none" stroke="#D4D4D3" stroke-miterlimit="10" x1="-213.1" y1="157.6" x2="-205.8" y2="164.9"/>
	<line fill="none" stroke="#D4D4D3" stroke-miterlimit="10" x1="-217.9" y1="144.4" x2="-225.2" y2="137.1"/>
	<circle fill="none" stroke="#D4D4D3" stroke-miterlimit="10" cx="-215.5" cy="151" r="17"/>
	<circle fill="none" stroke="#D4D4D3" stroke-miterlimit="10" cx="-215.5" cy="151" r="7"/>
	<line fill="none" stroke="#D4D4D3" stroke-miterlimit="10" x1="-225.2" y1="164.9" x2="-217.9" y2="157.6"/>
	<line fill="none" stroke="#D4D4D3" stroke-miterlimit="10" x1="-213.1" y1="144.4" x2="-205.8" y2="137.1"/>
	<line fill="none" stroke="#D4D4D3" stroke-miterlimit="10" x1="-208.9" y1="148.6" x2="-201.6" y2="141.3"/>
	<line fill="none" stroke="#D4D4D3" stroke-miterlimit="10" x1="-222.1" y1="153.4" x2="-229.4" y2="160.7"/>
</g>
<g>
	<path fill="none" stroke="#D4D4D3" stroke-miterlimit="10" d="M-793.5,200c0.9,0.2,1,3,1,6c0,14-7.5,24-18.5,24
		c-6.9,0-13-5.6-13-13c0-9.3,8.3-14,18.5-14C-795.8,203-794.6,199.8-793.5,200z"/>
	<path fill="none" stroke="#D4D4D3" stroke-miterlimit="10" d="M-811,217c-6.5,4.3-12.9,11.6-15.5,17"/>
</g>
<g>
	<line fill="none" stroke="#D4D4D3" stroke-miterlimit="10" x1="-743.5" y1="200" x2="-743.5" y2="233"/>
	<line fill="none" stroke="#D4D4D3" stroke-miterlimit="10" x1="-750.5" y1="234" x2="-736.5" y2="234"/>
	<line fill="none" stroke="#D4D4D3" stroke-miterlimit="10" x1="-760.5" y1="212" x2="-728" y2="203"/>
	<path fill="none" stroke="#D4D4D3" stroke-miterlimit="10" d="M-756.5,228h-2c-2.2,0-4-1.8-4-4l0,0c0-0.6,0.4-1,1-1h8
		c0.6,0,1,0.4,1,1l0,0C-752.5,226.2-754.3,228-756.5,228z"/>
	<polyline fill="none" stroke="#D4D4D3" stroke-miterlimit="10" points="-761.5,223 -757.5,211 -753.5,223 	"/>
	<path fill="none" stroke="#D4D4D3" stroke-miterlimit="10" d="M-728.5,220.5h-2c-2.2,0-4-1.8-4-4l0,0c0-0.6,0.4-1,1-1h8
		c0.6,0,1,0.4,1,1l0,0C-724.5,218.7-726.3,220.5-728.5,220.5z"/>
	<polyline fill="none" stroke="#D4D4D3" stroke-miterlimit="10" points="-733.5,215.5 -729.5,203.5 -725.5,215.5 	"/>
</g>
<g>
	<line fill="none" stroke="#D4D4D3" stroke-miterlimit="10" x1="-677.5" y1="199" x2="-677.5" y2="216.9"/>
	<path fill="none" stroke="#D4D4D3" stroke-miterlimit="10" d="M-669,204.8c3.9,2.7,6.5,7.2,6.5,12.3c0,8.3-6.7,15-15,15
		s-15-6.7-15-15c0-5.1,2.5-9.6,6.5-12.3"/>
</g>
<g>
	<path fill="none" stroke="#D4D4D3" stroke-miterlimit="10" d="M-598.5,232h-26c-2.2,0-4-1.8-4-4v-18c0-2.2,1.8-4,4-4h26
		c2.2,0,4,1.8,4,4v18C-594.5,230.2-596.3,232-598.5,232z"/>
	<path fill="none" stroke="#D4D4D3" stroke-miterlimit="10" d="M-604.5,206h-14v-3c0-1.7,1.3-3,3-3h8c1.7,0,3,1.3,3,3V206z"/>
	<line fill="none" stroke="#D4D4D3" stroke-miterlimit="10" x1="-628.5" y1="218" x2="-615.5" y2="218"/>
	<line fill="none" stroke="#D4D4D3" stroke-miterlimit="10" x1="-607.5" y1="218" x2="-595" y2="218"/>
	<path fill="none" stroke="#D4D4D3" stroke-miterlimit="10" d="M-608.5,221h-6c-0.6,0-1-0.4-1-1v-4c0-0.6,0.4-1,1-1h6
		c0.6,0,1,0.4,1,1v4C-607.5,220.6-607.9,221-608.5,221z"/>
</g>
<g>
	<line fill="none" stroke="#D4D4D3" stroke-miterlimit="10" x1="-547" y1="223.5" x2="-551.5" y2="215"/>
	<circle fill="none" stroke="#D4D4D3" stroke-miterlimit="10" cx="-545.5" cy="226" r="3"/>
	<line fill="none" stroke="#D4D4D3" stroke-miterlimit="10" x1="-562.5" y1="221" x2="-558.5" y2="221"/>
	<line fill="none" stroke="#D4D4D3" stroke-miterlimit="10" x1="-528.5" y1="221" x2="-532.5" y2="221"/>
	<line fill="none" stroke="#D4D4D3" stroke-miterlimit="10" x1="-530.8" y1="212.5" x2="-534.2" y2="214.5"/>
	<line fill="none" stroke="#D4D4D3" stroke-miterlimit="10" x1="-537" y1="206.3" x2="-539" y2="209.7"/>
	<line fill="none" stroke="#D4D4D3" stroke-miterlimit="10" x1="-545.5" y1="204" x2="-545.5" y2="208"/>
	<line fill="none" stroke="#D4D4D3" stroke-miterlimit="10" x1="-554" y1="206.3" x2="-552" y2="209.7"/>
	<line fill="none" stroke="#D4D4D3" stroke-miterlimit="10" x1="-560.2" y1="212.5" x2="-556.8" y2="214.5"/>
	<path fill="none" stroke="#D4D4D3" stroke-miterlimit="10" d="M-535.1,227l4.3,2.5c1.5-2.5,2.3-5.4,2.3-8.5c0-9.4-7.6-17-17-17
		s-17,7.6-17,17c0,3.1,0.8,6,2.3,8.5l4.3-2.5"/>
</g>
<g>
	<line fill="none" stroke="#D4D4D3" stroke-miterlimit="10" x1="-481.5" y1="231" x2="-477.5" y2="203"/>
	<path fill="none" stroke="#D4D4D3" stroke-miterlimit="10" d="M-486.8,207l-8.4,9.3c-0.3,0.4-0.3,1,0,1.3l8.4,9.3"/>
	<path fill="none" stroke="#D4D4D3" stroke-miterlimit="10" d="M-472.2,227l8.4-9.3c0.3-0.4,0.3-1,0-1.3l-8.4-9.3"/>
</g>
<g>
	<path fill="none" stroke="#D4D4D3" stroke-miterlimit="10" d="M-409.5,223.3v6.7c0,2.2-1.8,4-4,4s-4-1.8-4-4v-6.7
		c-4.7-1.6-8-6.1-8-11.3c0-6.6,5.4-12,12-12s12,5.4,12,12C-401.5,217.2-404.8,221.7-409.5,223.3z"/>
	<line fill="none" stroke="#D4D4D3" stroke-miterlimit="10" x1="-413.5" y1="225" x2="-413.5" y2="218"/>
	<line fill="none" stroke="#D4D4D3" stroke-miterlimit="10" x1="-417.5" y1="226" x2="-410.5" y2="226"/>
	<line fill="none" stroke="#D4D4D3" stroke-miterlimit="10" x1="-417.5" y1="230" x2="-410.5" y2="230"/>
	<line fill="none" stroke="#D4D4D3" stroke-miterlimit="10" x1="-416.5" y1="215" x2="-413.5" y2="218"/>
	<line fill="none" stroke="#D4D4D3" stroke-miterlimit="10" x1="-410.5" y1="215" x2="-413.5" y2="218"/>
</g>
<g>
	<path fill="none" stroke="#D4D4D3" stroke-miterlimit="10" d="M-334.5,234h-26c-2.2,0-4-1.8-4-4v-26c0-2.2,1.8-4,4-4h26
		c2.2,0,4,1.8,4,4v26C-330.5,232.2-332.3,234-334.5,234z"/>
	<line fill="none" stroke="#D4D4D3" stroke-miterlimit="10" x1="-359.5" y1="207" x2="-335.5" y2="207"/>
	<line fill="none" stroke="#D4D4D3" stroke-miterlimit="10" x1="-359.5" y1="214" x2="-335.5" y2="214"/>
	<line fill="none" stroke="#D4D4D3" stroke-miterlimit="10" x1="-359.5" y1="220" x2="-335.5" y2="220"/>
	<line fill="none" stroke="#D4D4D3" stroke-miterlimit="10" x1="-359.5" y1="227" x2="-335.5" y2="227"/>
</g>
<path fill="none" stroke="#D4D4D3" stroke-miterlimit="10" d="M-286.3,229.1l6.4,6.4l5.3-5.3c-0.8-0.3-1.5-0.7-2.2-1.4
	c-2.1-2.1-2.3-5.5-0.4-7.4s5.3-1.8,7.4,0.4c0.6,0.6,1.1,1.4,1.4,2.2l5.3-5.3l-6.4-6.4c0.8-0.3,1.5-0.7,2.2-1.4
	c2.1-2.1,2.3-5.5,0.4-7.4c-2-2-5.3-1.8-7.4,0.4c-0.6,0.6-1.1,1.4-1.4,2.2l-6.4-6.4l-5.3,5.3c0.8,0.3,1.5,0.7,2.2,1.4
	c2.1,2.1,2.3,5.5,0.4,7.4s-5.3,1.8-7.4-0.4c-0.6-0.6-1.1-1.4-1.4-2.2l-5.3,5.3l6.4,6.4c-0.8,0.3-1.5,0.7-2.2,1.4
	c-2.1,2.1-2.3,5.5-0.4,7.4c2,2,5.3,1.8,7.4-0.4C-287.1,230.7-286.6,229.9-286.3,229.1z"/>
<g>
	<ellipse fill="none" stroke="#D4D4D3" stroke-miterlimit="10" cx="-215.5" cy="220" rx="11" ry="14"/>
	<line fill="none" stroke="#D4D4D3" stroke-miterlimit="10" x1="-232.5" y1="220" x2="-226.5" y2="220"/>
	<line fill="none" stroke="#D4D4D3" stroke-miterlimit="10" x1="-230.5" y1="210.2" x2="-225.6" y2="213.7"/>
	<line fill="none" stroke="#D4D4D3" stroke-miterlimit="10" x1="-200.5" y1="210.2" x2="-205.4" y2="213.7"/>
	<line fill="none" stroke="#D4D4D3" stroke-miterlimit="10" x1="-230.5" y1="229.8" x2="-225.6" y2="226.3"/>
	<line fill="none" stroke="#D4D4D3" stroke-miterlimit="10" x1="-200.5" y1="229.8" x2="-205.4" y2="226.3"/>
	<line fill="none" stroke="#D4D4D3" stroke-miterlimit="10" x1="-204.5" y1="220" x2="-198.5" y2="220"/>
	<path fill="none" stroke="#D4D4D3" stroke-miterlimit="10" d="M-228.5,201c4.3,0,7.9,2.7,9,6"/>
	<path fill="none" stroke="#D4D4D3" stroke-miterlimit="10" d="M-202.5,201c-4.3,0-7.9,2.7-9,6"/>
	<path fill="none" stroke="#D4D4D3" stroke-miterlimit="10" d="M-225.5,214c6.7,5.3,13.3,5.3,20,0"/>
	<line fill="none" stroke="#D4D4D3" stroke-miterlimit="10" x1="-215.5" y1="218" x2="-215.5" y2="234"/>
</g>
<g>
	<path fill="none" stroke="#D4D4D3" stroke-miterlimit="10" d="M-660-101h-17.5l-11,8l-0.2-8h-6.3c-1.4,0-2.5-1.1-2.5-2.5v-22.9
		c0-1.4,1.1-2.5,2.5-2.5h35c1.4,0,2.5,1.1,2.5,2.5v22.9C-657.5-102.1-658.6-101-660-101z"/>
	<line fill="none" stroke="#D4D4D3" stroke-miterlimit="10" x1="-690.6" y1="-120.8" x2="-665.5" y2="-120.8"/>
	<line fill="none" stroke="#D4D4D3" stroke-miterlimit="10" x1="-690.6" y1="-115.6" x2="-665.5" y2="-115.6"/>
	<line fill="none" stroke="#D4D4D3" stroke-miterlimit="10" x1="-690.6" y1="-111" x2="-675.3" y2="-111"/>
</g>
<g>
	<path fill="none" stroke="#D4D4D3" stroke-miterlimit="10" d="M229.4,20v14c0,2.2,1.8,4,4,4h24c2.2,0,4-1.8,4-4V20"/>
	<line fill="none" stroke="#D4D4D3" stroke-miterlimit="10" x1="245.4" y1="2.7" x2="245.4" y2="26.7"/>
	<path fill="none" stroke="#D4D4D3" stroke-miterlimit="10" d="M237.1,20.2l7.6,7.5c0.4,0.4,1,0.4,1.4,0l8-7.6"/>
</g>
<circle fill="#FFFFFF" stroke="#000000" stroke-miterlimit="10" cx="66" cy="-184.5" r="16.7"/>
<rect x="-137.1" y="-149.2" fill="#E8AA22" width="130" height="104"/>
</svg>
